<svg xmlns="http://www.w3.org/2000/svg" width="32" height="32" viewBox="0 0 8.467 8.467"><path fill="none" stroke="#2980b9" stroke-linecap="square" stroke-linejoin="round" stroke-width=".767" d="M7.777 4.36a2.56 2.56 0 0 1-2.844 1.276 2.56 2.56 0 0 1-1.97-2.416A2.56 2.56 0 0 1 4.786.691 2.56 2.56 0 0 1 7.7 1.797"/><path fill="#4d4d4d" stroke-width=".097" d="M3.78 3.33v-.317h.824v-.83h.323v.83h.823v.317h-.823v.827h-.323V3.33zM5.78 3.32v-.317h.823v-.83h.323v.83h.823v.317h-.823v.827h-.323V3.32z" aria-label="+"/><path fill="#4d4d4d" d="m3.562 5.573-2.62 2.62a.264.264 0 0 1-.373 0l-.187-.188a.264.264 0 0 1 0-.374L3 5.011z"/></svg>