<?xml version="1.0" standalone="no"?><!DOCTYPE svg PUBLIC "-//W3C//DTD SVG 1.1//EN" "http://www.w3.org/Graphics/SVG/1.1/DTD/svg11.dtd"><svg t="1734790621091" class="icon" viewBox="0 0 1024 1024" version="1.1" xmlns="http://www.w3.org/2000/svg" p-id="12341" xmlns:xlink="http://www.w3.org/1999/xlink" width="200" height="200"><path d="M924 0H100C45 0 0 45 0 100v824c0 55 45 100 100 100h824c55 0 100-45 100-100V100c0-55-45-100-100-100z m55 924c0 14.58-5.75 28.36-16.19 38.81S938.58 979 924 979H100c-14.58 0-28.36-5.75-38.81-16.19S45 938.58 45 924V315h934v609zM45 270V100c0-14.58 5.75-28.36 16.19-38.81C71.64 50.75 85.42 45 100 45h824c14.58 0 28.36 5.75 38.81 16.19C973.25 71.64 979 85.42 979 100v170H45z" fill="#FFFFFF" p-id="12342"></path><path d="M135 157.5a22.5 22.5 0 1 0 45 0 22.5 22.5 0 1 0-45 0zM270 157.5a22.5 22.5 0 1 0 45 0 22.5 22.5 0 1 0-45 0zM405 157.5a22.5 22.5 0 1 0 45 0 22.5 22.5 0 1 0-45 0zM124.76 665.77c0-61 44.06-96.75 96.53-96.75 26.38 0 47.42 11.25 60.89 23.75l-21.89 23.5c-10.38-9-22.45-15.5-38.16-15.5-31.43 0-55 24-55 63.75 0 40.25 21.33 64.5 54.16 64.5 17.68 0 31.71-7.5 42.93-18.25l21.89 23c-17.12 17.75-39.29 27.25-66.22 27.25-52.47 0-95.13-33.5-95.13-95.25z m242.73-109.5h27.5L325.4 803.02h-27.5l69.59-246.75z m47.14 109.5c0-61 44.06-96.75 96.53-96.75 26.38 0 47.42 11.25 60.89 23.75l-21.89 23.5c-10.38-9-22.45-15.5-38.16-15.5-31.43 0-55 24-55 63.75 0 40.25 21.33 64.5 54.16 64.5 17.68 0 31.71-7.5 42.93-18.25l21.89 23c-17.12 17.75-39.29 27.25-66.22 27.25-52.48 0-95.13-33.5-95.13-95.25z m236.55 11.25H594.5v-26h56.68v-53.25h30.59v53.25h56.68v26h-56.68v53.25h-30.59v-53.25z m165.28 0h-56.68v-26h56.68v-53.25h30.59v53.25h56.68v26h-56.68v53.25h-30.59v-53.25z" fill="#FFFFFF" p-id="12343"></path></svg>