<?xml version="1.0" standalone="no"?><!DOCTYPE svg PUBLIC "-//W3C//DTD SVG 1.1//EN" "http://www.w3.org/Graphics/SVG/1.1/DTD/svg11.dtd"><svg t="1735189836064" class="icon" viewBox="0 0 1024 1024" version="1.1" xmlns="http://www.w3.org/2000/svg" p-id="6421" xmlns:xlink="http://www.w3.org/1999/xlink" width="200" height="200"><path d="M461.30199 759.436a30.487 30.487 0 1 1-30.395 30.487 30.44 30.44 0 0 1 30.394-30.487z m470.109-186.182a30.487 30.487 0 1 1 30.394-30.487 31.511 31.511 0 0 1-30.069 30.44z m0-123.625a93.09 93.09 0 0 0-92.766 93.091 91.23 91.23 0 0 0 4.655 28.905L537.77599 735.372a92.579 92.579 0 0 0-76.8-40.123 95.185 95.185 0 0 0-83.177 51.2l-275.13-144.29a119.808 119.808 0 0 1-47.57-107.52 58.228 58.228 0 0 1 20.806-46.546 27.927 27.927 0 0 1 27.183 1.583c73.588 38.54 313.53 165.376 323.118 170.17a49.478 49.478 0 0 0 51.2-3.212l492.684-256.977a22.575 22.575 0 0 0 16.011-20.853 24.809 24.809 0 0 0-14.382-20.852c-28.812-12.847-72.006-33.699-113.571-52.969-89.6-41.89-191.953-89.926-236.73-113.99a75.031 75.031 0 0 0-75.171 0c-203.218 102.68-483.142 240.78-499.2 250.555A107.706 107.706 0 0 0 0.50099 493.056a174.173 174.173 0 0 0 78.383 158.953l291.142 150.9a94.301 94.301 0 0 0 91.275 80.151 92.672 92.672 0 0 0 93.091-91.508L874.34599 618.17a93.51 93.51 0 0 0 150.155-73.867 93.37 93.37 0 0 0-92.765-94.767z" p-id="6422"></path></svg>