<?xml version="1.0" encoding="UTF-8"?>
<svg version="1.1" xmlns="http://www.w3.org/2000/svg" width="2400" height="2400">
<path d="M0 0 C7.49009406 0.08098117 14.905299 0.9855501 22.3359375 1.85546875 C23.10515533 1.94477661 23.87437317 2.03408447 24.66690063 2.12609863 C102.04884778 11.19450614 176.79635721 38.66737864 241.2109375 82.66796875 C241.83822754 83.09166748 242.46551758 83.51536621 243.11181641 83.9519043 C246.77588893 86.48029289 250.17243068 89.17819763 253.53125 92.1015625 C254.33014648 92.76542969 255.12904297 93.42929687 255.95214844 94.11328125 C257.4875003 95.39641021 258.98734837 96.72390062 260.43847656 98.1015625 C263.41538253 100.54415201 265.89323945 102.25408035 269.87936401 102.08807373 C274.57593512 101.40676409 279.11050961 100.13233885 283.66333008 98.81716919 C287.08448376 97.85050515 290.54264464 97.0813086 294.01171875 96.30859375 C295.35860975 95.99910006 296.70536888 95.68903201 298.05200195 95.37841797 C385.41685901 75.42348601 475.12224184 68.06475765 728.12109375 92.203125 C728.93656174 92.36872421 729.75202972 92.53432343 730.59220886 92.7049408 C734.45387 93.49255432 738.31159816 94.29475832 742.16479492 95.12280273 C743.5291278 95.40872154 744.89346664 95.69461188 746.2578125 95.98046875 C748.02656738 96.36138672 748.02656738 96.36138672 749.83105469 96.75 C754.62315063 97.38994292 757.75618496 96.62085159 761.68359375 93.8671875 C762.72229614 93.15284546 762.72229614 93.15284546 763.78198242 92.42407227 C764.5216626 91.90643311 765.26134277 91.38879395 766.0234375 90.85546875 C790.20474739 74.35798579 816.15855568 60.52588492 841.96337891 46.77099609 C844.70192217 45.30648436 847.43222416 43.82790212 850.16015625 42.34375 C902.74996099 13.90025768 968.22213592 -1.48734333 1027.9609375 0.16796875 C1030.86765153 7.08009344 1033.2674014 14.02517828 1035.3359375 21.23046875 C1035.63556396 22.27356201 1035.93519043 23.31665527 1036.24389648 24.39135742 C1044.48111087 53.45991026 1049.86078804 82.91803976 1053.2734375 112.91796875 C1053.35474915 113.63128357 1053.43606079 114.34459839 1053.51983643 115.07952881 C1055.47425748 132.46252795 1056.20086788 149.68506035 1056.2109375 167.16796875 C1056.21194962 168.75550964 1056.21194962 168.75550964 1056.21298218 170.37512207 C1056.18835903 194.80036167 1054.26046229 218.44530814 1049.49926758 242.44238281 C1049.17865356 244.07578613 1049.17865356 244.07578613 1048.8515625 245.7421875 C1048.65594727 246.69697998 1048.46033203 247.65177246 1048.25878906 248.63549805 C1047.95877523 251.18635333 1048.09050653 252.76995143 1048.9609375 255.16796875 C1050.2703703 256.76556327 1050.2703703 256.76556327 1051.9609375 258.23046875 C1055.86740757 261.96985965 1059.21140161 266.03239374 1062.59375 270.24609375 C1064.12302982 272.13371966 1065.6788625 274.00027502 1067.265625 275.83984375 C1124.94920772 342.790625 1150.67656536 432.74396156 1157.9609375 519.16796875 C1158.10559448 520.76402954 1158.10559448 520.76402954 1158.25317383 522.39233398 C1159.28683533 535.31632436 1159.15993717 548.27374659 1159.1484375 561.23046875 C1159.14783325 562.48251099 1159.147229 563.73455322 1159.14660645 565.02453613 C1159.12237841 583.49870966 1158.80938995 601.77524663 1156.9609375 620.16796875 C1156.82493159 621.581502 1156.6893744 622.99507847 1156.55419922 624.40869141 C1149.02117226 702.34550611 1129.28051072 783.55191404 1079.9609375 846.16796875 C1078.96513672 847.451875 1078.96513672 847.451875 1077.94921875 848.76171875 C1073.93413897 853.87325451 1069.72008887 858.75626839 1065.33203125 863.55078125 C1063.41533028 865.66641494 1061.54416361 867.8076467 1059.6796875 869.96875 C1055.96010188 874.22854097 1052.03268253 878.2444209 1048.0234375 882.23046875 C1047.35892578 882.89884766 1046.69441406 883.56722656 1046.00976562 884.25585938 C1041.49213502 888.76472639 1036.820337 893.03092052 1031.9609375 897.16796875 C1031.32857178 897.70703857 1030.69620605 898.2461084 1030.04467773 898.80151367 C1002.75366037 921.88428189 973.09079694 940.738458 941.9609375 958.16796875 C941.24647461 958.57257324 940.53201172 958.97717773 939.79589844 959.39404297 C870.61937177 998.40774067 785.66243943 1011.28642233 707.5456543 1017.26855469 C706.84408707 1017.32325928 706.14251984 1017.37796387 705.41969299 1017.43432617 C703.53548448 1017.57986173 701.65081184 1017.71935294 699.76611328 1017.85839844 C697.01121792 1017.99849335 697.01121792 1017.99849335 694.9609375 1019.16796875 C695.53199219 1019.45293213 696.10304688 1019.73789551 696.69140625 1020.03149414 C718.32725139 1030.8988627 738.98315651 1043.08248902 757.9609375 1058.16796875 C758.93804688 1058.93367188 759.91515625 1059.699375 760.921875 1060.48828125 C801.33793824 1092.79797077 819.88072731 1137.10738096 825.9609375 1188.16796875 C826.21715337 1192.76024526 826.23192768 1197.33769772 826.21630859 1201.9362793 C826.21915621 1203.26973502 826.22293522 1204.60318902 826.22755432 1205.93663979 C826.23578547 1208.80222265 826.23814234 1211.6677259 826.23588181 1214.53331947 C826.23268436 1219.16623723 826.2450465 1223.79903999 826.25991821 1228.43193054 C826.27783042 1234.24241759 826.29341702 1240.05289824 826.30525053 1245.863401 C826.34311015 1264.27373454 826.42620612 1282.68377491 826.546875 1301.09375 C826.55265155 1301.97824766 826.5584281 1302.86274532 826.56437969 1303.77404594 C826.80699174 1340.05081828 827.67966629 1376.28901212 828.9609375 1412.54296875 C829.00601189 1413.82728664 829.05108627 1415.11160454 829.09752655 1416.43484116 C829.60473203 1430.83881749 830.1180323 1445.24298939 830.73461914 1459.64276123 C830.89690517 1463.44963449 831.02649084 1467.25608477 831.13842773 1471.0647583 C831.20410153 1472.95935624 831.26993201 1474.85394875 831.3359375 1476.74853516 C831.35539932 1477.61047171 831.37486115 1478.47240826 831.39491272 1479.3604641 C831.68112375 1486.86016712 834.11137878 1491.45430684 838.9609375 1497.16796875 C840.14890042 1498.77310929 841.33669485 1500.37838266 842.51953125 1501.98730469 C850.53475295 1512.73044841 859.42149861 1521.88168698 869.9609375 1530.16796875 C871.75279867 1531.68857291 873.54446476 1533.20940699 875.3359375 1534.73046875 C881.17326357 1539.51707613 887.48695291 1543.3130424 893.9609375 1547.16796875 C904.52190675 1553.54759355 904.52190675 1553.54759355 906.9609375 1559.16796875 C907.80456636 1565.02896924 907.79357134 1570.6807586 904.328125 1575.67578125 C897.48350186 1583.14619851 887.17445985 1584.65612354 877.47558594 1585.45507812 C873.98586952 1585.56877566 870.51471438 1585.58457712 867.0234375 1585.54296875 C865.14108398 1585.5277417 865.14108398 1585.5277417 863.22070312 1585.51220703 C821.00610171 1584.82148106 782.41998961 1570.54691263 751.9609375 1541.16796875 C751.12433594 1540.39453125 750.28773438 1539.62109375 749.42578125 1538.82421875 C733.88393865 1524.08671191 727.67282948 1501.71544746 726.86760259 1480.73624122 C726.82845382 1478.08313731 726.81985151 1475.43169615 726.82290649 1472.77830505 C726.82008521 1471.7691833 726.81726393 1470.76006154 726.81435716 1469.72036034 C726.80606269 1466.35840613 726.80467734 1462.99648507 726.80322266 1459.63452148 C726.79855059 1457.21583464 726.79340638 1454.79714867 726.78782654 1452.37846375 C726.77657074 1447.17792865 726.76807432 1441.97739658 726.76170731 1436.77685356 C726.75133612 1428.54270701 726.73076031 1420.30860017 726.70858765 1412.07447815 C726.70110907 1409.25122369 726.69369513 1406.42796907 726.68630028 1403.60471439 C726.68444971 1402.89924353 726.68259915 1402.19377267 726.6806925 1401.4669239 C726.65979341 1393.44824935 726.64095282 1385.42957043 726.62304688 1377.41088867 C726.6205896 1376.3123097 726.6205896 1376.3123097 726.61808269 1375.19153721 C726.59182661 1363.33684899 726.57316457 1351.48215768 726.55645497 1339.62745272 C726.53898236 1327.42744041 726.51008305 1315.22748851 726.4715656 1303.02752453 C726.44828002 1295.51925612 726.43418142 1288.01108626 726.43223797 1280.50278146 C726.42986246 1274.73533119 726.41189003 1268.96800815 726.38836861 1263.20060921 C726.38121509 1260.84816094 726.3790553 1258.49569091 726.38247108 1256.14323425 C726.40886494 1234.49597966 725.37521779 1212.28942691 709.58984375 1195.671875 C698.63187783 1185.22284219 685.88907971 1178.72705879 671.9609375 1173.16796875 C672.02001058 1213.78862596 672.09470746 1254.40922758 672.18992378 1295.02981684 C672.20118993 1299.84173636 672.21232871 1304.65365617 672.22338867 1309.46557617 C672.22559236 1310.42341312 672.22779604 1311.38125007 672.2300665 1312.36811238 C672.26529505 1327.81185952 672.2902403 1343.25560662 672.31128452 1358.69937886 C672.33316236 1374.58414464 672.3663245 1390.46885898 672.40963906 1406.35358089 C672.43595113 1416.12985927 672.45379629 1425.90607372 672.46028354 1435.68238568 C672.46560083 1442.415721 672.48202516 1449.14897638 672.50660316 1455.88226862 C672.52040516 1459.74833148 672.52987135 1463.61425201 672.52594566 1467.48034096 C672.21353474 1524.65793922 672.21353474 1524.65793922 694.90234375 1575.72265625 C702.84417653 1586.19779381 708.25929362 1597.45402242 712.5234375 1609.85546875 C712.91909912 1610.98674194 712.91909912 1610.98674194 713.32275391 1612.14086914 C715.68696821 1619.40144828 715.68696821 1619.40144828 713.9609375 1623.16796875 C706.71851388 1627.68932999 694.17386732 1625.92906698 686.140625 1624.29296875 C681.02642869 1623.10598411 675.99578911 1621.65079841 670.9609375 1620.16796875 C670.01992187 1619.90032715 669.07890625 1619.63268555 668.109375 1619.35693359 C643.66839943 1612.40347604 620.90846943 1604.06010763 602.9609375 1585.16796875 C602.39246094 1584.65492187 601.82398438 1584.141875 601.23828125 1583.61328125 C584.31755373 1567.93721957 575.74019016 1544.65372077 568.9609375 1523.16796875 C568.72391113 1522.41692871 568.48688477 1521.66588867 568.24267578 1520.89208984 C559.05518576 1491.17865853 557.63479464 1460.89662578 557.72880626 1429.98797429 C557.73761696 1426.33671036 557.73450845 1422.68545128 557.73300171 1419.03417969 C557.73196374 1412.73981434 557.73812471 1406.44549114 557.74947739 1400.1511364 C557.76587964 1391.05107621 557.77095526 1381.95103595 557.77345337 1372.85096259 C557.77780767 1358.07909703 557.79105455 1343.30725384 557.81005859 1328.53540039 C557.82847654 1314.2040213 557.84260392 1299.87264833 557.85107422 1285.54125977 C557.85186239 1284.21144438 557.85186239 1284.21144438 557.85266648 1282.85476404 C557.85527696 1278.40629263 557.85780428 1273.95782118 557.86029029 1269.5093497 C557.88095208 1232.72886952 557.91778314 1195.94843077 557.9609375 1159.16796875 C538.1609375 1159.16796875 518.3609375 1159.16796875 497.9609375 1159.16796875 C497.97664795 1168.46339844 497.9923584 1177.75882813 498.00854492 1187.3359375 C498.05680588 1217.15764424 498.09011236 1246.97935118 498.11413349 1276.8010869 C498.11788512 1281.44177288 498.12176813 1286.08245873 498.12573242 1290.72314453 C498.12651935 1291.64693027 498.12730628 1292.57071602 498.12811706 1293.52249527 C498.14113225 1308.43427663 498.16476441 1323.34602291 498.19239589 1338.25778353 C498.22055874 1353.58538544 498.23713662 1368.91296911 498.24320298 1384.24059582 C498.24729699 1393.68065902 498.26017546 1403.12062302 498.2846869 1412.56065565 C498.3006788 1419.05469477 498.30530783 1425.54868343 498.30144163 1432.04274076 C498.29954074 1435.77632306 498.30222508 1439.50973338 498.31855392 1443.24328423 C498.42224318 1468.23872452 496.28502376 1491.94825643 489.9609375 1516.16796875 C489.74598633 1516.9971582 489.53103516 1517.82634766 489.30957031 1518.68066406 C479.72186173 1554.83879373 462.59005086 1587.74962329 429.48046875 1607.23046875 C407.29504174 1619.59549859 375.73085464 1631.2567956 349.9609375 1627.16796875 C345.37250782 1625.54464702 341.4174384 1623.62446965 337.9609375 1620.16796875 C338.23259699 1615.69722968 340.30009006 1612.80445796 342.7734375 1609.16796875 C348.48915323 1600.56335059 353.54784654 1591.60926244 358.58447266 1582.59521484 C359.76240016 1580.51806777 360.97687419 1578.47425479 362.22265625 1576.4375 C379.84530216 1546.3509002 384.09053165 1504.89727801 384.11915588 1470.67764282 C384.12656285 1468.75472272 384.12656285 1468.75472272 384.13411945 1466.79295576 C384.14753029 1463.27870031 384.15506854 1459.76445437 384.16154611 1456.25018024 C384.16962627 1452.44397195 384.18329721 1448.63778298 384.19625854 1444.83158875 C384.21791443 1438.25167072 384.23609812 1431.67175063 384.25186348 1425.09181595 C384.27466211 1415.57855968 384.30279054 1406.06532491 384.33218276 1396.55208699 C384.37973689 1381.11416128 384.4230337 1365.67622673 384.46362305 1350.23828125 C384.5030402 1335.24966749 384.54448113 1320.26106156 384.58862305 1305.27246094 C384.59270946 1303.88454469 384.59270946 1303.88454469 384.59687842 1302.46858974 C384.61055892 1297.82633236 384.62427899 1293.1840751 384.63801873 1288.5418179 C384.75179196 1250.08388452 384.85864326 1211.62593428 384.9609375 1173.16796875 C382.40382191 1174.25891926 379.84970079 1175.35612339 377.296875 1176.45703125 C376.57878662 1176.76261963 375.86069824 1177.06820801 375.12084961 1177.38305664 C369.15777242 1179.96398828 364.01705399 1183.06470274 358.9609375 1187.16796875 C358.10886719 1187.84601563 357.25679687 1188.5240625 356.37890625 1189.22265625 C341.27971113 1201.94491661 336.92909945 1218.58083646 335.15310359 1237.55906487 C334.49339253 1246.51549801 334.67876552 1255.5273634 334.68969727 1264.50195312 C334.68530112 1266.91034622 334.67999576 1269.31873779 334.67385864 1271.72712708 C334.66094663 1277.54919055 334.65666046 1283.37121488 334.65561862 1289.19329131 C334.6535818 1295.99528344 334.63773829 1302.79722357 334.62048208 1309.59919161 C334.58975441 1321.74824753 334.5655365 1333.89730531 334.54760742 1346.04638672 C334.54653474 1346.77099576 334.54546206 1347.49560481 334.54435688 1348.2421717 C334.53253779 1356.32536622 334.5223291 1364.40856148 334.51391602 1372.49176025 C334.51084164 1375.42435712 334.50775291 1378.35695396 334.50463867 1381.28955078 C334.50387333 1382.01326054 334.50310799 1382.73697029 334.50231946 1383.48261064 C334.48919454 1395.59134492 334.46450053 1407.70002559 334.43089527 1419.80872011 C334.41252527 1426.58809178 334.40001211 1433.36737541 334.40219307 1440.14677429 C334.40395329 1446.52290844 334.39206836 1452.89887402 334.37007523 1459.2749691 C334.36451368 1461.60281918 334.36395509 1463.93068797 334.36901283 1466.2585392 C334.42295732 1494.01399179 330.73777195 1519.28422192 310.9609375 1540.16796875 C310.09530823 1541.22115103 309.2389387 1542.282126 308.3984375 1543.35546875 C286.4031622 1568.73463256 248.56590553 1582.02554032 215.96875 1584.8828125 C171.85766509 1587.80041084 171.85766509 1587.80041084 159.1484375 1577.91796875 C155.228725 1573.85083344 153.30513074 1569.77146121 152.76953125 1564.1640625 C152.94078825 1559.0162787 155.14580066 1555.92147145 158.640625 1552.28515625 C165.37010165 1546.14479203 172.8195377 1540.94430719 180.28198242 1535.74804688 C188.58366656 1529.96616804 196.43299609 1523.92946703 203.9609375 1517.16796875 C204.73050781 1516.4821875 205.50007813 1515.79640625 206.29296875 1515.08984375 C211.61371291 1510.0844783 215.33858966 1504.48424754 218.9609375 1498.16796875 C219.32896484 1497.53149414 219.69699219 1496.89501953 220.07617188 1496.23925781 C241.5779546 1458.69110335 233.76759476 1413.91390434 230.71243286 1372.60424805 C225.38033136 1299.90978717 225.38033136 1299.90978717 229.9609375 1286.16796875 C229.03535034 1286.45462402 229.03535034 1286.45462402 228.09106445 1286.74707031 C217.1656159 1290.10315487 206.26228854 1293.3486863 195.0234375 1295.48046875 C194.25878174 1295.62709961 193.49412598 1295.77373047 192.70629883 1295.92480469 C178.28174319 1298.51262878 164.03182185 1299.5480573 149.3984375 1299.48046875 C148.57221893 1299.47864594 147.74600037 1299.47682312 146.89474487 1299.47494507 C133.06407853 1299.42384183 119.59662674 1298.61813166 105.9609375 1296.16796875 C105.07148437 1296.01763184 104.18203125 1295.86729492 103.265625 1295.71240234 C76.41386704 1291.05493784 50.26175247 1281.32680232 25.9609375 1269.16796875 C25.00574219 1268.6977832 24.05054688 1268.22759766 23.06640625 1267.74316406 C2.52842243 1257.59102146 -17.43958832 1247.19710824 -32.0390625 1229.16796875 C-32.81765625 1228.25660156 -33.59625 1227.34523438 -34.3984375 1226.40625 C-36.67568508 1223.70504675 -38.86743023 1220.9547733 -41.0390625 1218.16796875 C-41.47508789 1217.60980469 -41.91111328 1217.05164062 -42.36035156 1216.4765625 C-59.32246904 1194.64623479 -73.92263905 1171.06464783 -87.2265625 1146.85546875 C-107.36978323 1110.24276509 -134.30721466 1076.15141137 -166.140625 1048.84765625 C-168.01877003 1047.18592299 -169.78211766 1045.4567135 -171.5390625 1043.66796875 C-175.68178626 1039.46963796 -180.11755116 1035.66363577 -184.60009766 1031.83447266 C-209.44715266 1010.60902327 -209.44715266 1010.60902327 -210.54296875 1006.08984375 C-210.69147034 1000.58538472 -209.5712672 997.29042593 -206 993.08203125 C-194.85092297 982.19946602 -182.37001281 978.86208691 -167.30981445 978.77636719 C-159.9166971 978.8743605 -152.94280189 979.83637571 -145.7265625 981.41796875 C-144.32410278 981.72468506 -144.32410278 981.72468506 -142.89331055 982.03759766 C-136.92629693 983.45604326 -131.53895217 985.46901254 -126.0390625 988.16796875 C-124.99890991 988.67191162 -124.99890991 988.67191162 -123.93774414 989.18603516 C-114.24246014 993.97605542 -105.4126853 999.26943447 -97.0390625 1006.16796875 C-96.49717285 1006.60979492 -95.9552832 1007.05162109 -95.39697266 1007.50683594 C-83.34257744 1017.37982877 -72.03443646 1028.20011523 -62.0390625 1040.16796875 C-61.19988281 1041.1528125 -60.36070312 1042.13765625 -59.49609375 1043.15234375 C-55.12554284 1048.28279104 -50.79579031 1053.44241579 -46.5390625 1058.66796875 C-39.33152156 1067.51007701 -31.99275981 1076.22661166 -24.3046875 1084.65625 C-23.042625 1086.0553986 -21.78732845 1087.46103538 -20.55957031 1088.89038086 C-9.60199029 1101.63008332 2.46755182 1114.10632297 15.9609375 1124.16796875 C17.36609412 1125.25103137 18.7710203 1126.33439299 20.17578125 1127.41796875 C59.16485718 1157.15601875 105.79443099 1175.51406537 155.32421875 1168.921875 C178.31020576 1165.43350002 199.41582562 1156.7394522 219.9609375 1146.16796875 C220.87391602 1145.71711914 221.78689453 1145.26626953 222.72753906 1144.80175781 C231.30019013 1140.49824322 238.70997991 1136.63995057 242.34326172 1127.36376953 C243.41266775 1124.11534334 244.3425105 1120.8394059 245.24072266 1117.54003906 C252.48383595 1093.68441575 272.79977634 1071.73928678 291.7734375 1056.48046875 C292.28108643 1056.06522949 292.78873535 1055.64999023 293.31176758 1055.22216797 C303.81002715 1047.02972768 316.04261127 1041.54365597 328.2109375 1036.35546875 C329.59792545 1035.75697114 330.98463999 1035.15783953 332.37109375 1034.55810547 C336.56237208 1032.74881339 340.76071664 1030.95638487 344.9609375 1029.16796875 C345.96145142 1028.74146027 345.96145142 1028.74146027 346.98217773 1028.30633545 C354.96536566 1024.90373361 362.95755707 1021.52281611 370.9609375 1018.16796875 C369.81359131 1018.05316162 368.66624512 1017.93835449 367.48413086 1017.82006836 C278.43175621 1008.83492939 189.08739577 993.69660052 63.9609375 935.16796875 C63.11096191 934.67973633 62.26098633 934.19150391 61.38525391 933.68847656 C21.35024938 910.53000111 -16.05920905 881.25623706 -44.0390625 844.16796875 C-44.54695312 843.50055664 -45.05484375 842.83314453 -45.578125 842.14550781 C-64.00349413 817.80904427 -78.88233286 790.56084359 -90.0390625 762.16796875 C-90.39033203 761.29720703 -90.74160156 760.42644531 -91.10351562 759.52929688 C-115.94217526 697.80500865 -124.24577032 629.63219137 -124.2890625 563.48046875 C-124.29006958 562.39924744 -124.29107666 561.31802612 -124.29211426 560.20404053 C-124.27307103 529.65029461 -122.23624436 499.30306849 -117.0390625 469.16796875 C-116.82910645 467.94384277 -116.61915039 466.7197168 -116.40283203 465.45849609 C-110.64382001 432.55642816 -102.49447951 400.37962769 -88.0390625 370.16796875 C-87.58225098 369.21051758 -87.12543945 368.25306641 -86.65478516 367.26660156 C-77.76466203 348.7628458 -67.77718449 331.02270802 -56.0390625 314.16796875 C-55.47952881 313.36166016 -55.47952881 313.36166016 -54.90869141 312.5390625 C-46.24600602 300.09597412 -36.95972346 288.22498071 -27.01025391 276.78515625 C-25.67834424 275.25316657 -24.35816829 273.71099682 -23.0390625 272.16796875 C-22.41 271.52085937 -21.7809375 270.87375 -21.1328125 270.20703125 C-18.56057185 265.41163974 -21.6812687 258.50496446 -23.00683594 253.54467773 C-44.86598239 171.40913961 -34.36542062 80.28722156 -5.0390625 1.16796875 C-3.50321365 -0.3678801 -2.14630123 0.01012194 0 0 Z " fill="#000000" transform="translate(674.0390625,444.83203125)"/>
<path d="M0 0 C3.45260604 0.00543564 6.90520523 0.00780598 10.35781479 0.00987244 C42.17203771 0.03955422 73.86028947 0.31178827 105.57397079 3.0900116 C108.2815761 3.32365138 110.99005647 3.54178011 113.69927597 3.75584412 C209.1712294 11.33880466 303.23473365 30.42768862 493.21441269 99.31785583 C494.30737656 99.80721619 495.40034042 100.29657654 496.52642441 100.80076599 C526.15253217 114.12434998 555.62565039 128.40156246 583.65874863 144.83494568 C586.35130892 146.39728913 589.06395047 147.91849912 591.78472519 149.43113708 C614.09899859 161.83961276 635.53919625 175.41613699 656.77691269 189.56785583 C657.66488541 190.15914276 658.55285812 190.75042969 659.46773911 191.3596344 C674.44026948 201.34264899 689.25147376 211.54386174 703.71441269 222.25535583 C704.49647079 222.83325867 705.2785289 223.4111615 706.08428574 224.00657654 C721.85499048 235.69358242 737.42891048 247.66990212 752.58160019 260.14988708 C754.33170795 261.59099956 756.08690881 263.02594987 757.84722519 264.45457458 C764.19323503 269.60723855 770.42185464 274.88351102 776.61285019 280.22019958 C778.96224245 282.24529702 781.32116409 284.25810314 783.69097519 286.25926208 C790.64158077 292.14212758 797.38486807 298.19808845 804.01299667 304.44261169 C807.77898558 307.98990783 811.60381191 311.44042111 815.52691269 314.81394958 C817.9084793 316.93641057 820.12049636 319.21218295 822.35322189 321.48910522 C824.09303564 323.19859437 825.88374778 324.77835872 827.74346542 326.35520935 C833.15397909 331.06289789 838.18715003 336.14613403 843.24956894 341.22019958 C844.29739215 342.2673472 845.34536359 343.31434649 846.39347458 344.36120605 C848.57768257 346.5439491 850.76009601 348.72846608 852.94121933 350.91429138 C855.7169515 353.69572007 858.49715051 356.4726336 861.27872181 359.2482214 C863.44000472 361.40586604 865.59886983 363.5659173 867.75704384 365.72667122 C868.7804259 366.75071354 869.8045323 367.77403258 870.82942009 368.79656792 C875.96655535 373.92449298 881.0273765 379.07410729 885.72465134 384.61401367 C887.31464253 386.43248884 888.99004103 388.12697018 890.71441269 389.81785583 C893.70675644 392.76385798 896.46765441 395.84768591 899.20660019 399.02879333 C901.15804056 401.25358722 903.15624917 403.42956085 905.16900253 405.59886169 C909.99745754 410.80492878 914.57946399 416.13601564 919.03472519 421.66941833 C921.19198668 424.29060702 923.42752269 426.80939864 925.71441269 429.31785583 C929.93723092 433.96222907 933.91038925 438.77177375 937.85699081 443.65135193 C939.40814205 445.55569695 940.97430198 447.44708715 942.54253769 449.33738708 C949.10284487 457.24800246 955.5545716 465.20525718 961.75786972 473.40037537 C963.47359581 475.65906003 965.20129997 477.90835821 966.92925644 480.15769958 C975.55766663 491.40611882 984.00212104 502.76241856 992.21441269 514.31785583 C992.7467955 515.06228943 993.27917831 515.80672302 993.82769394 516.57371521 C1014.03541308 544.85969916 1032.74461417 574.27302263 1050.21441269 604.31785583 C1050.96440536 605.60514587 1050.96440536 605.60514587 1051.72954941 606.91844177 C1085.4609569 664.95025328 1114.22092 725.90845145 1136.48644638 789.25370789 C1137.25688494 791.43828586 1138.03467355 793.6201537 1138.81353378 795.80174255 C1171.12356546 886.48187006 1190.93472249 981.66113328 1200.46441269 1086.38035583 C1200.54154495 1087.25679749 1200.61867722 1088.13323914 1200.69814682 1089.03623962 C1201.2839811 1095.79172842 1201.77018089 1102.55165875 1202.21441269 1109.31785583 C1202.34521729 1111.28968338 1202.34521729 1111.28968338 1202.4786644 1113.30134583 C1204.26918092 1140.89781948 1204.57754384 1168.45537194 1204.53226852 1196.10344315 C1204.52683288 1199.55604919 1204.52446254 1203.00864838 1204.52239609 1206.46125793 C1204.4927143 1238.27548086 1204.22048025 1269.96373262 1201.44225693 1301.67741394 C1201.20861715 1304.38501924 1200.99048842 1307.09349961 1200.77642441 1309.80271912 C1193.19535725 1405.25083413 1174.10186528 1499.37535332 1105.21441269 1689.31785583 C1104.68202988 1690.49686462 1104.14964706 1691.67587341 1103.60113144 1692.89060974 C1090.52161697 1721.68349079 1076.69851267 1750.26822436 1060.77691269 1777.60301208 C1058.51631835 1781.53079476 1056.33747941 1785.50253294 1054.14922714 1789.47093201 C1040.56220169 1814.03844582 1025.32923117 1837.42165496 1009.65533066 1860.68626404 C1008.09420052 1863.00505215 1006.54042399 1865.32838402 1004.99615097 1867.65843201 C1001.13556221 1873.48325237 997.20552318 1879.23325709 993.08941269 1884.88035583 C992.54373642 1885.63212097 991.99806015 1886.38388611 991.43584824 1887.15843201 C989.69898916 1889.54756993 987.9575384 1891.93328684 986.21441269 1894.31785583 C985.62257187 1895.12803162 985.03073105 1895.9382074 984.42095566 1896.77293396 C977.14498509 1906.72102687 969.79742846 1916.60135492 962.21441269 1926.31785583 C961.77000839 1926.88842712 961.3256041 1927.45899841 960.867733 1928.04685974 C952.56051759 1938.70555775 944.05828957 1949.18375262 935.30254745 1959.47776794 C932.37157608 1962.92925442 929.49726518 1966.42003846 926.65191269 1969.94285583 C922.77861997 1974.70305637 918.70681277 1979.24590367 914.55425644 1983.76316833 C912.5560642 1985.94483398 910.5929238 1988.14796892 908.65191269 1990.38035583 C905.31411744 1994.21842953 901.91659762 1998.0001938 898.50738144 2001.77488708 C897.06739482 2003.37187395 895.63181353 2004.97285567 894.20269394 2006.57957458 C880.41194611 2022.05148025 865.88872783 2036.80773331 851.22076035 2051.44187927 C848.69178024 2053.96509274 846.1674157 2056.49286942 843.64428329 2059.02192879 C841.66422698 2061.00561962 839.68176975 2062.98689733 837.69860458 2064.96747971 C836.32151061 2066.34360188 834.94639481 2067.72170275 833.57134628 2069.09986877 C829.15931799 2073.49551007 824.69852232 2077.75934682 819.9524498 2081.79389954 C818.12413065 2083.39701749 816.41649687 2085.08198047 814.71441269 2086.81785583 C811.74705946 2089.83199166 808.64095977 2092.61702916 805.43706894 2095.37644958 C802.88464386 2097.60589645 800.39553755 2099.89786965 797.90191269 2102.19285583 C793.38537431 2106.3169226 788.72308253 2110.19722448 783.96441269 2114.03660583 C781.13341691 2116.38504552 778.42057671 2118.82695486 775.71441269 2121.31785583 C770.90800549 2125.73162696 765.94331186 2129.88145893 760.86480331 2133.97654724 C758.96602469 2135.5197262 757.0818553 2137.0797638 755.19878769 2138.64207458 C747.28727273 2145.20419983 739.32848353 2151.65690038 731.13189316 2157.86131287 C728.87320849 2159.57703896 726.62391031 2161.30474311 724.37456894 2163.03269958 C713.12687215 2171.66086974 701.78512492 2180.12761581 690.21441269 2188.31785583 C688.92808945 2189.22954529 688.92808945 2189.22954529 687.61577988 2190.15965271 C657.12234035 2211.71403946 625.63185376 2231.78612951 593.21441269 2250.31785583 C592.21861191 2250.88858826 591.22281113 2251.45932068 590.19683456 2252.04734802 C574.03639283 2261.28411888 557.6162654 2269.96258913 541.02685165 2278.39537048 C539.23995233 2279.30485681 537.45495059 2280.21806829 535.6699791 2281.1313324 C453.71592888 2323.01768716 365.3368003 2353.22853958 32.02691269 2400.48582458 C29.86634934 2400.48905704 27.70578619 2400.49242239 25.54522324 2400.49591064 C21.04432292 2400.50184081 16.54344162 2400.50375717 12.04253769 2400.50315857 C7.5190591 2400.50307778 2.9956828 2400.50995545 -1.52777481 2400.52366638 C-29.68078259 2400.60759393 -57.69127058 2400.20347473 -85.78558731 2398.31785583 C-87.50570023 2398.20430252 -87.50570023 2398.20430252 -89.2605629 2398.0884552 C-95.73382153 2397.65122677 -102.19775428 2397.13777752 -108.66058731 2396.56785583 C-109.61131119 2396.48548676 -110.56203506 2396.40311768 -111.54156876 2396.31825256 C-200.86673093 2388.51676497 -289.35225323 2371.43218399 -523.38910294 2282.99266052 C-526.7723874 2281.3243647 -530.16164463 2279.66865284 -533.55121231 2278.01316833 C-546.9299697 2271.44114716 -559.96234469 2264.41443865 -572.87738419 2256.97703552 C-575.85918592 2255.27586657 -578.85770614 2253.60865964 -581.86371231 2251.95066833 C-607.48517322 2237.81378574 -631.90371574 2222.09674326 -656.15399551 2205.7587738 C-658.47278362 2204.19764367 -660.7961155 2202.64386714 -663.12616348 2201.09959412 C-668.95098385 2197.23900536 -674.70098856 2193.30896632 -680.34808731 2189.19285583 C-681.09985245 2188.64717957 -681.85161758 2188.1015033 -682.62616348 2187.53929138 C-685.0153014 2185.80243231 -687.40101832 2184.06098155 -689.78558731 2182.31785583 C-690.59576309 2181.72601501 -691.40593887 2181.13417419 -692.24066544 2180.5243988 C-702.18875834 2173.24842824 -712.0690864 2165.90087161 -721.78558731 2158.31785583 C-722.3561586 2157.87345154 -722.92672989 2157.42904724 -723.51459122 2156.97117615 C-734.17328922 2148.66396074 -744.65148409 2140.16173271 -754.94549942 2131.4059906 C-758.3969859 2128.47501923 -761.88776994 2125.60070833 -765.41058731 2122.75535583 C-770.11058294 2118.93405504 -774.57051541 2114.89836432 -779.02386856 2110.79441833 C-781.77211645 2108.32993578 -784.59479599 2106.00342901 -787.47308731 2103.69285583 C-791.54029148 2100.41136157 -795.25073967 2096.9679284 -798.88714981 2093.22019958 C-801.42258857 2090.67954387 -804.13150366 2088.37136634 -806.85199356 2086.03269958 C-809.32143034 2083.84263343 -811.61291323 2081.5039597 -813.92268753 2079.14807129 C-815.6631358 2077.43815895 -817.45435376 2075.85783511 -819.31464005 2074.28050232 C-824.72515371 2069.57281378 -829.75832465 2064.48957764 -834.82074356 2059.41551208 C-835.86856677 2058.36836447 -836.91653821 2057.32136518 -837.9646492 2056.27450562 C-840.14885719 2054.09176257 -842.33127063 2051.90724559 -844.51239395 2049.72142029 C-847.28812612 2046.9399916 -850.06832513 2044.16307807 -852.84989643 2041.38749027 C-855.01117934 2039.22984563 -857.17004446 2037.06979437 -859.32821846 2034.90904045 C-860.35160052 2033.88499813 -861.37570692 2032.86167909 -862.40059471 2031.83914375 C-867.53772997 2026.71121868 -872.59855112 2021.56160438 -877.29582596 2016.021698 C-878.88581715 2014.20322283 -880.56121566 2012.50874149 -882.28558731 2010.81785583 C-885.27793106 2007.87185369 -888.03882904 2004.78802576 -890.77777481 2001.60691833 C-892.72921518 1999.38212445 -894.72742379 1997.20615082 -896.74017715 1995.03684998 C-901.56863216 1989.83078289 -906.15063861 1984.49969603 -910.60589981 1978.96629333 C-912.7631613 1976.34510465 -914.99869732 1973.82631303 -917.28558731 1971.31785583 C-921.50840554 1966.6734826 -925.48156387 1961.86393792 -929.42816544 1956.98435974 C-930.97931667 1955.08001472 -932.5454766 1953.18862452 -934.11371231 1951.29832458 C-940.67401949 1943.38770921 -947.12574622 1935.43045449 -953.32904434 1927.2353363 C-955.04477043 1924.97665164 -956.77247459 1922.72735346 -958.50043106 1920.47801208 C-967.12884125 1909.22959285 -975.57329566 1897.87329311 -983.78558731 1886.31785583 C-984.58416153 1885.20120544 -984.58416153 1885.20120544 -985.39886856 1884.06199646 C-1010.73988179 1848.59062592 -1033.64207999 1811.42270737 -1054.78558731 1773.31785583 C-1055.58271133 1771.88240417 -1055.58271133 1771.88240417 -1056.39593887 1770.41795349 C-1098.075573 1695.00425899 -1130.56319467 1614.67547853 -1192.03558731 1314.25535583 C-1192.11271957 1313.37891418 -1192.18985184 1312.50247253 -1192.26932144 1311.59947205 C-1192.85515571 1304.84398341 -1193.34139036 1298.08405526 -1193.78558731 1291.31785583 C-1193.87279037 1290.0029718 -1193.95999344 1288.68808777 -1194.04983902 1287.33335876 C-1195.83854618 1259.75702097 -1196.14872376 1232.21986049 -1196.10344315 1204.59197235 C-1196.09800759 1201.14226166 -1196.09563712 1197.69255783 -1196.09357071 1194.24284363 C-1196.06354171 1162.07838014 -1195.78527292 1130.03903744 -1193.01343155 1097.97392273 C-1192.78215911 1095.27789194 -1192.56347285 1092.58107823 -1192.34759903 1089.8837738 C-1184.65903982 994.75484123 -1165.56980988 900.97770438 -1096.78558731 711.31785583 C-1096.2532045 710.13884705 -1095.72082169 708.95983826 -1095.17230606 707.74510193 C-1082.05391344 678.86663559 -1068.16923183 650.23357899 -1052.21478653 622.80906677 C-1050.31772234 619.50232898 -1048.50388811 616.153502 -1046.69110489 612.80003357 C-1026.6221394 575.70838257 -1002.77984709 540.26826401 -977.78558731 506.31785583 C-976.60041088 504.69826947 -975.41552513 503.07847035 -974.23089981 501.45848083 C-967.53429298 492.31742365 -960.75731561 483.25108325 -953.78558731 474.31785583 C-953.34118301 473.74728455 -952.89677872 473.17671326 -952.43890762 472.58885193 C-947.02466041 465.64202039 -941.55324085 458.74957766 -935.95355606 451.95066833 C-934.51244359 450.20056057 -933.07749328 448.44535972 -931.64886856 446.68504333 C-926.49620459 440.33903349 -921.21993212 434.11041388 -915.88324356 427.91941833 C-913.85814612 425.57002607 -911.84534001 423.21110443 -909.84418106 420.84129333 C-903.96131556 413.89068775 -897.90535469 407.14740045 -891.66083145 400.51927185 C-888.11353531 396.75328294 -884.66302203 392.92845662 -881.28949356 389.00535583 C-879.16703257 386.62378922 -876.8912602 384.41177217 -874.61433792 382.17904663 C-872.90484878 380.43923288 -871.32508443 378.64852074 -869.7482338 376.7888031 C-865.04054526 371.37828944 -859.95730912 366.3451185 -854.88324356 361.28269958 C-853.83609595 360.23487638 -852.78909665 359.18690494 -851.74223709 358.13879395 C-849.55949405 355.95458595 -847.37497706 353.77217251 -845.18915176 351.59104919 C-842.40772307 348.81531702 -839.63080955 346.03511801 -836.85522175 343.25354671 C-834.6975771 341.0922638 -832.53752584 338.93339869 -830.37677193 336.77522469 C-829.35272961 335.75184263 -828.32941057 334.72773623 -827.30687523 333.70284843 C-822.17895016 328.56571317 -817.02933585 323.50489203 -811.48942947 318.80761719 C-809.6709543 317.217626 -807.97647296 315.54222749 -806.28558731 313.81785583 C-803.33958516 310.82551208 -800.25575724 308.06461411 -797.07464981 305.32566833 C-794.84985592 303.37422796 -792.6738823 301.37601936 -790.50458145 299.36326599 C-785.29851437 294.53481098 -779.96742751 289.95280453 -774.43402481 285.49754333 C-771.81283612 283.34028185 -769.2940445 281.10474583 -766.78558731 278.81785583 C-762.14121408 274.59503761 -757.33166939 270.62187928 -752.45209122 266.67527771 C-750.5477462 265.12412648 -748.656356 263.55796654 -746.76605606 261.98973083 C-738.85544069 255.42942366 -730.89818597 248.97769692 -722.70306778 242.7743988 C-720.44438311 241.05867271 -718.19508494 239.33096856 -715.94574356 237.60301208 C-704.69732433 228.97460189 -693.34102459 220.53014749 -681.78558731 212.31785583 C-681.04115372 211.78547302 -680.29672012 211.25309021 -679.52972794 210.70457458 C-644.04969708 185.35737437 -606.86853469 162.5183372 -568.78558731 141.31785583 C-567.89339493 140.81882751 -567.00120255 140.31979919 -566.08197403 139.8056488 C-534.53779399 122.21713448 -502.00443414 106.47133532 -468.78558731 92.31785583 C-467.70084122 91.85539459 -467.70084122 91.85539459 -466.59418106 91.3835907 C-446.90907353 83.00766078 -427.06457468 75.17466746 -406.88544083 68.06010437 C-404.68191547 67.28121029 -402.48071858 66.49597191 -400.27972794 65.70994568 C-307.49329011 32.64823603 -210.81040147 13.62468636 -112.88324356 4.35301208 C-112.22650146 4.2902861 -111.56975937 4.22756012 -110.893116 4.16293335 C-73.98185485 0.77093018 -37.04827843 -0.06066869 0 0 Z M-98.78558731 136.06785583 C-99.69728683 136.15055725 -100.60898636 136.23325867 -101.54831314 136.31846619 C-168.74687784 142.46680231 -234.89208716 154.85253135 -299.78558731 173.31785583 C-300.51954727 173.52648254 -301.25350723 173.73510925 -302.0097084 173.95005798 C-337.02650616 183.937633 -371.17490994 196.33850556 -404.78558731 210.31785583 C-405.43702713 210.58835754 -406.08846695 210.85885925 -406.75964737 211.13755798 C-426.86397567 219.50013613 -446.46904051 228.7829093 -465.98419571 238.42985535 C-468.63480778 239.73648119 -471.2925217 241.02845014 -473.94964981 242.32176208 C-486.23401243 248.33554478 -498.15142748 254.89654797 -510.00238419 261.72117615 C-512.65684882 263.24400059 -515.32044982 264.74905524 -517.98871231 266.24754333 C-536.66071352 276.76068022 -555.08249857 287.83297593 -572.76947403 299.94090271 C-575.15545443 301.57046549 -577.55063871 303.18611007 -579.94574356 304.80223083 C-590.94884868 312.24344258 -601.8289879 319.82712728 -612.54388809 327.67771912 C-614.87878373 329.38604289 -617.22060936 331.08457556 -619.56293106 332.78269958 C-628.59455288 339.3549553 -637.39634959 346.12868186 -646.01605606 353.23191833 C-649.59770465 356.18064672 -653.24555879 359.03644551 -656.91058731 361.88035583 C-662.32412318 366.09523504 -667.56039949 370.48538116 -672.74481583 374.97825623 C-676.22714051 377.99437741 -679.75510492 380.93305548 -683.34808731 383.81785583 C-688.71356791 388.17038435 -693.74947686 392.83321149 -698.79730606 397.54441833 C-701.08917141 399.68139898 -703.41317488 401.77008932 -705.78558731 403.81785583 C-710.9558189 408.3001564 -715.95774684 412.96489681 -720.96527481 417.62693787 C-722.75430589 419.28879802 -724.55094418 420.94212092 -726.34808731 422.59519958 C-736.26399675 431.77205092 -745.84969584 441.27436009 -755.41058731 450.81785583 C-756.06928818 451.47396851 -756.72798904 452.13008118 -757.40665054 452.80607605 C-766.70816495 462.05348526 -766.70816495 462.05348526 -775.48236465 471.79637146 C-777.15061534 473.7440182 -778.9414295 475.53728967 -780.78558731 477.31785583 C-783.95648729 480.44631547 -786.91128691 483.68640936 -789.81293106 487.06394958 C-791.75044111 489.27769869 -793.73703121 491.44027831 -795.73797989 493.59666443 C-800.56743626 498.80322782 -805.14998991 504.13520996 -809.60589981 509.66941833 C-811.7631613 512.29060702 -813.99869732 514.80939864 -816.28558731 517.31785583 C-820.99017074 522.4928976 -825.39176121 527.87853145 -829.78558731 533.31785583 C-830.82002175 534.58407086 -831.85522353 535.84965927 -832.89105606 537.11473083 C-839.67256745 545.40636854 -846.32421972 553.77331509 -852.78558731 562.31785583 C-853.34504044 563.05519958 -853.90449356 563.79254333 -854.48089981 564.55223083 C-862.65753845 575.338435 -870.68108344 586.2114492 -878.40326309 597.32810974 C-879.72287164 599.2275816 -881.04885233 601.12246748 -882.37543106 603.01707458 C-896.27013119 622.9540909 -909.37670016 643.42669727 -921.78558731 664.31785583 C-922.25093887 665.10080017 -922.71629044 665.88374451 -923.19574356 666.69041443 C-926.45483619 672.19785339 -929.63292903 677.74893399 -932.78558731 683.31785583 C-933.34906876 684.30801697 -933.9125502 685.2981781 -934.49310684 686.31834412 C-976.49020024 760.36024081 -1007.87552267 839.3719615 -1060.03558731 1097.31785583 C-1060.11271957 1098.15409485 -1060.18985184 1098.99033386 -1060.26932144 1099.85191345 C-1063.19841283 1132.08029785 -1064.16900188 1164.3394802 -1064.10344315 1196.6876297 C-1064.09798457 1199.49570856 -1064.09562985 1202.30377895 -1064.09357071 1205.11186218 C-1064.05916949 1235.27257231 -1063.31488964 1265.24939979 -1060.78558731 1295.31785583 C-1060.64478414 1297.05286743 -1060.50415627 1298.78789325 -1060.36371231 1300.52293396 C-1052.63505429 1394.31557497 -1032.18960965 1487.32162813 -990.78558731 1597.31785583 C-990.33054825 1598.44046814 -989.87550919 1599.56308044 -989.40668106 1600.7197113 C-986.31101641 1608.30205901 -983.08597227 1615.82255887 -979.78558731 1623.31785583 C-979.52128922 1623.91950562 -979.25699112 1624.5211554 -978.98468399 1625.14103699 C-965.5442347 1655.70811387 -951.12159744 1685.95428946 -934.25336075 1714.79246521 C-932.77527809 1717.33559346 -931.32710344 1719.89359382 -929.88714981 1722.45848083 C-919.37232511 1741.15562252 -908.28324941 1759.59609517 -896.16254044 1777.30174255 C-894.53297765 1779.68772295 -892.91733307 1782.08290723 -891.30121231 1784.47801208 C-883.86000056 1795.4811172 -876.27631586 1806.36125642 -868.42572403 1817.07615662 C-866.71740026 1819.41105225 -865.01886758 1821.75287789 -863.32074356 1824.09519958 C-856.74848785 1833.1268214 -849.97476129 1841.92861812 -842.87152481 1850.54832458 C-839.92279642 1854.12997318 -837.06699763 1857.77782731 -834.22308731 1861.44285583 C-830.0082081 1866.85639171 -825.61806198 1872.09266801 -821.12518692 1877.27708435 C-818.10906574 1880.75940904 -815.17038767 1884.28737344 -812.28558731 1887.88035583 C-807.9330588 1893.24583644 -803.27023165 1898.28174539 -798.55902481 1903.32957458 C-796.42204417 1905.62143993 -794.33335383 1907.94544341 -792.28558731 1910.31785583 C-787.80328674 1915.48808742 -783.13854633 1920.49001537 -778.47650528 1925.49754333 C-776.81464513 1927.28657442 -775.16132222 1929.08321271 -773.50824356 1930.88035583 C-764.33139223 1940.79626528 -754.82908305 1950.38196437 -745.28558731 1959.94285583 C-744.62947464 1960.6015567 -743.97336197 1961.26025757 -743.2973671 1961.93891907 C-734.04995788 1971.24043348 -734.04995788 1971.24043348 -724.30707169 1980.01463318 C-722.35942495 1981.68288386 -720.56615348 1983.47369802 -718.78558731 1985.31785583 C-715.65712767 1988.48875582 -712.41703379 1991.44355544 -709.03949356 1994.34519958 C-706.82574445 1996.28270964 -704.66316483 1998.26929974 -702.50677872 2000.27024841 C-697.30021532 2005.09970478 -691.96823319 2009.68225844 -686.43402481 2014.13816833 C-683.81283612 2016.29542982 -681.2940445 2018.53096584 -678.78558731 2020.81785583 C-673.61054554 2025.52243926 -668.22491169 2029.92402973 -662.78558731 2034.31785583 C-661.51937228 2035.35229027 -660.25378388 2036.38749206 -658.98871231 2037.42332458 C-650.6970746 2044.20483598 -642.33012806 2050.85648825 -633.78558731 2057.31785583 C-633.04824356 2057.87730896 -632.31089981 2058.43676208 -631.55121231 2059.01316833 C-620.11957792 2067.67908473 -608.57787742 2076.14941996 -596.78558731 2084.31785583 C-596.0558168 2084.8249408 -595.3260463 2085.33202576 -594.57416153 2085.85447693 C-565.88137277 2105.76160936 -536.33102778 2124.38028402 -505.78558731 2141.31785583 C-504.84731094 2141.83847595 -503.90903458 2142.35909607 -502.94232559 2142.89549255 C-463.17050653 2164.85414714 -422.184504 2184.01101908 -379.78558731 2200.31785583 C-378.04172745 2200.98929626 -378.04172745 2200.98929626 -376.26263809 2201.67430115 C-287.19307049 2235.70366639 -193.65477573 2255.96215186 -98.78558731 2264.56785583 C-97.94889511 2264.64507874 -97.11220291 2264.72230164 -96.2501564 2264.80186462 C-64.022225 2267.73069715 -31.76348846 2268.70126944 0.58418655 2268.63571167 C3.39226542 2268.6302531 6.2003358 2268.62789837 9.00841904 2268.62583923 C39.16707186 2268.59144036 69.14888843 2267.8648218 99.21441269 2265.31785583 C100.53415085 2265.20894012 100.53415085 2265.20894012 101.88055038 2265.0978241 C114.35268292 2264.06642246 126.78799413 2262.80034835 139.21441269 2261.31785583 C140.06380417 2261.21686584 140.91319565 2261.11587585 141.78832626 2261.01182556 C230.36198074 2250.39726079 317.31347912 2228.82500132 518.72124863 2138.76951599 C521.2503983 2137.29690299 523.79524738 2135.85597147 526.34722519 2134.42332458 C545.04750313 2123.90827629 563.49031679 2112.81711656 581.19829941 2100.69480896 C583.58427981 2099.06524618 585.97946408 2097.4496016 588.37456894 2095.83348083 C605.67649603 2084.13252717 622.57407417 2071.93941241 639.21441269 2059.31785583 C639.77434921 2058.8943988 640.33428574 2058.47094177 640.91119003 2058.03465271 C649.56179177 2051.48376199 657.99445461 2044.68355532 666.38970566 2037.81053162 C667.99664965 2036.49599381 669.6072046 2035.18587282 671.21831894 2033.87644958 C677.72139382 2028.5850102 684.13643442 2023.19531462 690.51861191 2017.75926208 C692.21676115 2016.31585968 693.92031462 2014.87904161 695.62456894 2013.44285583 C702.60131333 2007.54029138 709.36579366 2001.45618227 716.01714706 1995.18894958 C719.15764705 1992.23045961 722.31268051 1989.31398342 725.58941269 1986.50535583 C729.16847006 1983.42984549 732.46085103 1980.10998862 735.74566269 1976.72410583 C737.75282028 1974.76776236 739.7883623 1972.94165423 741.91143417 1971.11643982 C745.94063834 1967.60159243 749.75733151 1963.92017297 753.53081894 1960.13426208 C754.19097504 1959.47506271 754.85113113 1958.81586334 755.53129196 1958.13668823 C756.91476775 1956.75388749 758.29700352 1955.36984508 759.67803574 1953.98460388 C761.77172938 1951.88555241 763.87071143 1949.79189644 765.97027206 1947.69871521 C767.3241084 1946.34421798 768.67763444 1944.98941052 770.03081894 1943.63426208 C770.64768066 1943.01942459 771.26454239 1942.4045871 771.90009689 1941.77111816 C775.65903742 1937.99224003 779.22585736 1934.0936606 782.70072556 1930.05172729 C784.60729807 1927.86782046 786.63418828 1925.83598399 788.71441269 1923.81785583 C792.06374998 1920.50798885 795.21367225 1917.11038634 798.27691269 1913.53660583 C800.20044046 1911.33385629 802.17546383 1909.18471883 804.164608 1907.04124451 C808.99506495 1901.83418408 813.57816655 1896.50130745 818.03472519 1890.96629333 C820.19198668 1888.34510465 822.42752269 1885.82631303 824.71441269 1883.31785583 C829.41904841 1878.14275654 833.81959408 1872.75644386 838.21441269 1867.31785583 C839.21358926 1866.09843067 840.21363834 1864.87972006 841.21441269 1863.66160583 C848.54601953 1854.72073083 855.66247779 1845.63697709 862.63238144 1836.41160583 C864.17707391 1834.36727209 865.72681247 1832.32684057 867.27691269 1830.28660583 C874.47564479 1820.78166513 881.40051118 1811.10150213 888.21441269 1801.31785583 C888.65043808 1800.69539978 889.08646347 1800.07294373 889.53570175 1799.43162537 C909.62760008 1770.7343869 928.22634538 1740.95436055 945.21441269 1710.31785583 C945.73503281 1709.37957947 946.25565292 1708.4413031 946.79204941 1707.47459412 C975.09385561 1656.21397107 998.71068521 1602.8572195 1017.5073204 1547.40336609 C1018.20491752 1545.34586104 1018.90614911 1543.28961828 1019.6074791 1541.23338318 C1046.36747338 1462.49669969 1062.43814463 1379.84108902 1069.00152206 1296.99186707 C1069.21774713 1294.27597361 1069.44265841 1291.56087696 1069.66753769 1288.84568787 C1074.55968592 1228.48668687 1074.39575831 1166.6470015 1069.21441269 1106.31785583 C1069.08712784 1104.81191864 1069.08712784 1104.81191864 1068.95727158 1103.27555847 C1065.09327998 1057.89900148 1058.74466865 1012.8565158 1049.21441269 968.31785583 C1049.04081223 967.50655212 1048.86721176 966.69524841 1048.68835068 965.85935974 C1036.77760692 910.48052663 1020.66491468 855.77837521 999.21441269 803.31785583 C998.93595505 802.63628418 998.65749741 801.95471252 998.37060165 801.25248718 C982.16926346 761.69524293 964.1092977 722.6055943 942.56499863 685.65184021 C940.95110048 682.86281883 939.38982414 680.04709046 937.83282089 677.22605896 C928.31420443 660.02432342 917.80180166 643.3756815 906.96978378 626.97654724 C905.73804173 625.11094628 904.50947391 623.24324752 903.28326035 621.37400818 C895.80187709 609.97182256 888.23008038 598.72198112 879.93316269 587.89598083 C877.31137041 584.47288021 874.81787089 580.97041553 872.33941269 577.44285583 C862.72998475 563.85045746 852.19042654 550.9309081 841.64263535 538.06199646 C840.35436621 536.4887666 839.07118544 534.91137336 837.78863144 533.33348083 C832.49231132 526.82361667 827.0972815 520.40218572 821.65581894 514.01365662 C820.21241653 512.31550738 818.77559846 510.61195391 817.33941269 508.90769958 C811.4375141 501.93174224 805.35399328 495.16813636 799.0877037 488.51731873 C796.1086233 485.354782 793.17136759 482.17677714 790.33941269 478.88035583 C787.52123326 475.60192097 784.51141199 472.57013102 781.40191269 469.56785583 C779.53614962 467.64878525 777.79729158 465.69033769 776.0540123 463.66184998 C772.39017527 459.46369226 768.53828239 455.49682493 764.59331894 451.56394958 C763.88972748 450.8594014 763.18613602 450.15485321 762.4612236 449.42895508 C760.98426621 447.95132217 759.50606527 446.47493127 758.02666855 444.9997406 C755.78276184 442.76119102 753.54424565 440.51735111 751.30620956 438.27293396 C749.86056651 436.8279518 748.41461323 435.38327992 746.96831894 433.93894958 C746.30973389 433.2783403 745.65114883 432.61773102 744.97260666 431.93710327 C741.07965091 428.0633969 737.07689275 424.37449683 732.91154099 420.7947998 C730.91501174 419.05729897 729.05242354 417.22150993 727.21441269 415.31785583 C724.08595305 412.14695585 720.84585916 409.19215623 717.46831894 406.29051208 C715.25456983 404.35300203 713.09199021 402.36641193 710.9356041 400.36546326 C705.7290407 395.53600689 700.39705857 390.95345323 694.86285019 386.49754333 C692.2416615 384.34028185 689.72286988 382.10474583 687.21441269 379.81785583 C682.03937092 375.11327241 676.65373707 370.71168194 671.21441269 366.31785583 C669.94819766 365.2834214 668.68260926 364.24821961 667.41753769 363.21238708 C659.12589998 356.43087569 650.75895343 349.77922342 642.21441269 343.31785583 C641.47706894 342.75840271 640.73972519 342.19894958 639.98003769 341.62254333 C629.31580243 333.53836499 618.56419207 325.61121172 607.57964706 317.96775818 C604.91569752 316.10948289 602.26041237 314.23914325 599.60503769 312.36863708 C589.37945385 305.18386787 579.10800162 298.18927909 568.43658066 291.6860199 C565.88151565 290.11289484 563.34647384 288.50998841 560.81206894 286.90379333 C497.52925622 246.85784405 429.56122683 213.7858103 358.69195175 189.50975037 C355.66198905 188.47125852 352.6371667 187.41895367 349.61315536 186.36329651 C267.40327509 157.75465176 180.80648281 141.59613577 88.77691269 134.63035583 C87.53951843 134.53894821 87.53951843 134.53894821 86.27712631 134.44569397 C80.59172837 134.03133047 74.9043017 133.66450424 69.21441269 133.31785583 C68.45054245 133.26839813 67.68667221 133.21894043 66.89965439 133.16798401 C48.25611955 131.98987096 29.57114636 132.13049075 10.898983 132.1325531 C7.13786572 132.13263375 3.37687185 132.1257767 -0.38422012 132.11204529 C-33.28173207 131.99398587 -66.01397365 133.04318433 -98.78558731 136.06785583 Z " fill="#000000" transform="translate(1195.785587310791,-0.3178558349609375)"/>
</svg>
