<?xml version="1.0" standalone="no"?><!DOCTYPE svg PUBLIC "-//W3C//DTD SVG 1.1//EN" "http://www.w3.org/Graphics/SVG/1.1/DTD/svg11.dtd"><svg t="1734789375565" class="icon" viewBox="0 0 1024 1024" version="1.1" xmlns="http://www.w3.org/2000/svg" p-id="2961" xmlns:xlink="http://www.w3.org/1999/xlink" width="200" height="200"><path d="M298.752 491.84L193.024 597.568a37.056 37.056 0 0 0 0 52.864l105.728 105.728a37.056 37.056 0 0 0 52.864 0 37.056 37.056 0 0 0 0-52.864L272.32 624l79.296-79.296a37.056 37.056 0 0 0 0-52.864 37.888 37.888 0 0 0-52.864 0z m426.496 0a37.056 37.056 0 0 0-52.864 0 37.056 37.056 0 0 0 0 52.864l79.296 79.296-79.296 79.296a37.056 37.056 0 0 0 0 52.864 37.056 37.056 0 0 0 52.864 0l105.728-105.728a37.056 37.056 0 0 0 0-52.864l-105.728-105.728z m-164.864-47.936a37.184 37.184 0 0 0-45.696 26.432L437.184 758.4a37.184 37.184 0 0 0 26.432 45.696 37.184 37.184 0 0 0 45.696-26.432L586.816 489.6a37.12 37.12 0 0 0-26.432-45.696zM960 362.816v448A149.12 149.12 0 0 1 810.816 960H213.184A149.12 149.12 0 0 1 64 810.816v-448h896zM810.816 64A149.12 149.12 0 0 1 960 213.184V288H64V213.184A149.12 149.12 0 0 1 213.184 64h597.632z" fill="#ffffff" p-id="2962"></path></svg>