<?xml version="1.0" standalone="no"?><!DOCTYPE svg PUBLIC "-//W3C//DTD SVG 1.1//EN" "http://www.w3.org/Graphics/SVG/1.1/DTD/svg11.dtd"><svg t="1734789859786" class="icon" viewBox="0 0 1024 1024" version="1.1" xmlns="http://www.w3.org/2000/svg" p-id="17431" xmlns:xlink="http://www.w3.org/1999/xlink" width="200" height="200"><path d="M510.464 622.08c-169.984 0-308.736-138.752-308.736-308.736S340.48 4.608 510.464 4.608C680.448 4.608 819.2 143.36 819.2 313.344S680.448 622.08 510.464 622.08z m0-556.032c-136.192 0-247.296 111.104-247.296 247.296S374.272 560.64 510.464 560.64 757.76 449.536 757.76 313.344 646.656 66.048 510.464 66.048z" fill="#ffffff" p-id="17432"></path><path d="M974.336 1024h-61.44c0-188.928-171.52-399.872-400.896-399.872S111.104 835.072 111.104 1024h-61.44c0-112.64 49.152-227.84 135.168-316.928C274.944 613.888 391.168 562.688 512 562.688s237.056 51.2 327.168 144.384C925.184 796.16 974.336 911.36 974.336 1024z" fill="#ffffff" p-id="17433"></path></svg>