<?xml version="1.0" standalone="no"?><!DOCTYPE svg PUBLIC "-//W3C//DTD SVG 1.1//EN" "http://www.w3.org/Graphics/SVG/1.1/DTD/svg11.dtd"><svg t="1734790776929" class="icon" viewBox="0 0 1024 1024" version="1.1" xmlns="http://www.w3.org/2000/svg" p-id="15034" xmlns:xlink="http://www.w3.org/1999/xlink" width="200" height="200"><path d="M468.992 527.552L604.8 391.68a64 64 0 1 1 90.496 90.56l-180.992 180.992a64 64 0 0 1-90.56 0L333.248 572.8a64 64 0 1 1 90.496-90.496l45.248 45.248z" fill="#ffffff" p-id="15035"></path><path d="M512.32 0l88.384 66.432 107.136-27.52 56.32 95.36 109.952 15.616 15.616 109.76 94.976 56.128-27.52 107.008L1024 511.68l-66.752 88.832 27.52 106.88-95.808 56.64-14.336 109.888-110.976 14.528-55.552 96.512-107.392-28.928L512.384 1024l-88.576-68.096-107.84 29.056-55.68-96.64-110.208-14.4-14.464-110.4-96.96-55.872 29.056-107.904L0 511.68l67.776-88.128L38.656 315.52l96.192-55.36 15.68-110.272 109.248-15.552 56.448-95.424 107.52 27.648L512.32 0zM512 864a352 352 0 1 0 0-704 352 352 0 0 0 0 704z" fill="#ffffff" p-id="15036"></path></svg>