<?xml version="1.0" standalone="no"?><!DOCTYPE svg PUBLIC "-//W3C//DTD SVG 1.1//EN" "http://www.w3.org/Graphics/SVG/1.1/DTD/svg11.dtd"><svg t="1734791410130" class="icon" viewBox="0 0 1024 1024" version="1.1" xmlns="http://www.w3.org/2000/svg" p-id="17052" xmlns:xlink="http://www.w3.org/1999/xlink" width="200" height="200"><path d="M870.27648 256.448l60.352-24.256 54.592-73.088-72.768-72.768-73.472 54.592-23.872 60.352-181.12 180.736 59.2 51.392 177.088-176.96z m106.368 492.8l-327.68-285.44-11.712-9.92-93.44-81.344c11.392-55.296 31.744-204.16-51.136-286.912A286.4 286.4 0 0 0 288.96448 1.088c-18.944 0-37.76 1.856-56.32 5.376a14.08 14.08 0 0 0-10.752 9.6 14.4 14.4 0 0 0 3.584 13.952l123.52 123.52 24.64 119.488L272.64448 374.016l-119.488-24.704L29.44448 225.728C25.98848 222.08 20.22848 220.672 15.23648 222.08a13.76 13.76 0 0 0-9.6 10.752c-19.008 94.592 10.752 192 78.848 260.16 40.64 40.704 103.808 62.08 183.04 62.08A523.52 523.52 0 0 0 371.33248 544l376.832 432.128a160.448 160.448 0 0 0 114.56 47.872c42.88 0 83.52-16.768 113.856-47.04a161.216 161.216 0 0 0 0.064-227.712z m-85.696 142.016a40.192 40.192 0 1 1-56.768-56.96 40.192 40.192 0 0 1 56.768 56.96zM351.81248 622.08a36.608 36.608 0 0 0-51.776 0L59.52448 863.104a36.608 36.608 0 0 0 0 51.84l93.824 93.76a37.056 37.056 0 0 0 52.096 0l233.792-233.408a37.056 37.056 0 0 0 0-52.096L351.81248 622.08z" fill="#ffffff" p-id="17053"></path></svg>