<?xml version="1.0" standalone="no"?><!DOCTYPE svg PUBLIC "-//W3C//DTD SVG 1.1//EN" "http://www.w3.org/Graphics/SVG/1.1/DTD/svg11.dtd"><svg t="1734855007940" class="icon" viewBox="0 0 1024 1024" version="1.1" xmlns="http://www.w3.org/2000/svg" p-id="2650" xmlns:xlink="http://www.w3.org/1999/xlink" width="200" height="200"><path d="M61.44 238.933333h901.12c27.306667 0 47.786667-20.48 47.786667-47.786666 0-27.306667-20.48-47.786667-47.786667-47.786667H61.44C34.133333 143.36 13.653333 163.84 13.653333 191.146667 13.653333 218.453333 34.133333 238.933333 61.44 238.933333z m901.12 225.28H61.44C34.133333 464.213333 13.653333 484.693333 13.653333 512s20.48 47.786667 47.786667 47.786667h901.12c27.306667 0 47.786667-20.48 47.786667-47.786667s-23.893333-47.786667-47.786667-47.786667z m0 320.853334H61.44c-27.306667 0-47.786667 20.48-47.786667 47.786666 0 27.306667 20.48 47.786667 47.786667 47.786667h901.12c27.306667 0 47.786667-20.48 47.786667-47.786667 0-27.306667-23.893333-47.786667-47.786667-47.786666z" p-id="2651" fill="#ffffff"></path></svg>