<?xml version="1.0" standalone="no"?><!DOCTYPE svg PUBLIC "-//W3C//DTD SVG 1.1//EN" "http://www.w3.org/Graphics/SVG/1.1/DTD/svg11.dtd"><svg t="1734789956753" class="icon" viewBox="0 0 1024 1024" version="1.1" xmlns="http://www.w3.org/2000/svg" p-id="18468" xmlns:xlink="http://www.w3.org/1999/xlink" width="200" height="200"><path d="M419.620765 28.656917A95.343503 95.343503 0 0 0 351.749118 0.538664H95.883784A95.774435 95.774435 0 0 0 0.001617 96.474698v255.865334a95.828301 95.828301 0 0 0 95.882167 95.936033h255.865334a95.828301 95.828301 0 0 0 95.882167-95.936033v-255.865334A94.373908 94.373908 0 0 0 419.620765 28.656917z m-36.090479 323.683115a32.319832 32.319832 0 0 1-9.157286 22.623882 31.511836 31.511836 0 0 1-22.623882 9.372751H95.883784a31.511836 31.511836 0 0 1-22.623882-9.372751 32.319832 32.319832 0 0 1-9.157286-22.623882v-255.865334a32.319832 32.319832 0 0 1 9.157286-22.623883 31.404103 31.404103 0 0 1 22.623882-9.372751h255.865334a31.404103 31.404103 0 0 1 22.623882 9.372751 32.319832 32.319832 0 0 1 9.157286 22.623883v255.865334z m36.090479 251.986954a95.343503 95.343503 0 0 0-67.871647-28.118254H95.883784A95.828301 95.828301 0 0 0 0.001617 672.144766v255.865334A95.828301 95.828301 0 0 0 95.883784 1024h255.865334a95.828301 95.828301 0 0 0 95.882167-95.936034v-255.865334a94.373908 94.373908 0 0 0-28.01052-67.871646z m-36.090479 323.683114a32.319832 32.319832 0 0 1-9.157286 22.623882 31.511836 31.511836 0 0 1-22.623882 9.372751H95.883784a31.511836 31.511836 0 0 1-22.623882-9.372751 32.319832 32.319832 0 0 1-9.157286-22.623882v-255.865334a32.319832 32.319832 0 0 1 9.157286-22.623882 31.350237 31.350237 0 0 1 22.623882-9.372751h255.865334a31.350237 31.350237 0 0 1 22.623882 9.372751 32.319832 32.319832 0 0 1 9.157286 22.623882v255.865334zM995.452432 28.441452a96.259232 96.259232 0 0 0-67.871646-28.118254h-255.865334a95.774435 95.774435 0 0 0-95.882168 95.936034v255.865334a95.828301 95.828301 0 0 0 95.882168 95.936034h255.865334A95.828301 95.828301 0 0 0 1023.462953 352.124566v-255.865334a96.636297 96.636297 0 0 0-28.010521-67.602315z m-36.090478 323.683114a32.319832 32.319832 0 0 1-9.157286 22.623882 31.511836 31.511836 0 0 1-22.623882 9.372751h-255.865334a31.511836 31.511836 0 0 1-22.623883-9.372751 32.64303 32.64303 0 0 1-9.695949-22.623882v-255.865334a32.319832 32.319832 0 0 1 9.695949-22.623882 31.404103 31.404103 0 0 1 22.623883-9.372751h255.865334a31.404103 31.404103 0 0 1 22.623882 9.372751 32.319832 32.319832 0 0 1 9.157286 22.623882v255.865334z m36.090478 251.986954a96.259232 96.259232 0 0 0-67.871646-28.118253h-255.865334a95.343503 95.343503 0 0 0-67.871647 28.118253 94.373908 94.373908 0 0 0-28.010521 67.81778v255.865334A95.828301 95.828301 0 0 0 671.715452 1024h255.865334A95.828301 95.828301 0 0 0 1023.462953 928.063966v-255.865334a96.636297 96.636297 0 0 0-28.010521-67.871646z m-36.090478 323.683114a32.319832 32.319832 0 0 1-9.157286 22.623883 31.511836 31.511836 0 0 1-22.623882 9.372751h-255.865334a31.511836 31.511836 0 0 1-22.623883-9.372751 32.589164 32.589164 0 0 1-9.695949-22.623883v-255.865334a32.319832 32.319832 0 0 1 9.695949-22.623882 31.350237 31.350237 0 0 1 22.623883-9.372751h255.865334a31.350237 31.350237 0 0 1 22.623882 9.372751 32.319832 32.319832 0 0 1 9.157286 22.623882v255.865334z" p-id="18469" fill="#ffffff"></path></svg>