<?xml version="1.0" standalone="no"?><!DOCTYPE svg PUBLIC "-//W3C//DTD SVG 1.1//EN" "http://www.w3.org/Graphics/SVG/1.1/DTD/svg11.dtd"><svg t="1734790159356" class="icon" viewBox="0 0 1024 1024" version="1.1" xmlns="http://www.w3.org/2000/svg" p-id="4476" xmlns:xlink="http://www.w3.org/1999/xlink" width="200" height="200"><path d="M299.281759 546.411741c5.240351 5.067412 12.014638 7.589862 18.781762 7.589862 7.040347 0 14.074553-2.730181 19.363-8.163937 10.375302-10.658757 10.118452-27.682479-0.576122-38.026058l-87.719854-84.840271 86.259596-72.039733c11.420097-9.538237 12.920264-26.498514 3.353375-37.882795-9.567913-11.383258-26.584472-12.878309-38.003546-3.342118l-109.186771 91.187839a26.862811 26.862811 0 0 0-9.633405 19.632129 26.848485 26.848485 0 0 0 8.17417 20.279882l109.187795 105.6052zM687.984618 350.931604l86.258573 72.039733-87.718831 84.840271c-10.691503 10.343579-10.9504 27.367301-0.576121 38.026058 5.291516 5.435803 12.3247 8.163937 19.364023 8.163937 6.768147 0 13.542434-2.52245 18.782786-7.589862l109.184724-105.604177a26.852578 26.852578 0 0 0 8.17417-20.279882 26.859741 26.859741 0 0 0-9.633404-19.632129l-109.184725-91.187839c-11.422144-9.53619-28.434609-8.042163-38.006616 3.342118-9.565866 11.384281-8.064676 28.343535 3.355421 37.881772zM443.002045 550.556131a26.922163 26.922163 0 0 0 13.190417 3.451612c9.43386 0 18.59245-4.941546 23.542182-13.721513L590.676385 343.493192c7.296173-12.947893 2.685155-29.341259-10.30367-36.616966-12.989849-7.274684-29.435403-2.674922-36.734646 10.268878L432.699398 513.938142c-7.300266 12.947893-2.686179 29.341259 10.302647 36.617989z" fill="#ffffff" p-id="4477"></path><path d="M907.557476 64.644299H115.818307c-28.468378 0-51.629891 23.952528-51.629891 53.394071v597.74078c0 29.441543 23.161512 53.392024 51.629891 53.392024h299.359019v136.242987h-77.20129c-14.898315 0-26.976398 12.040221-26.976398 26.891464s12.078083 26.889417 26.976398 26.889417h347.421664c14.898315 0 26.975375-12.039197 26.975375-26.889417 0-14.852266-12.078083-26.891464-26.975375-26.891464h-77.201289V769.171174h299.361065c28.467355 0 51.626821-23.950482 51.626821-53.392024V118.03837c0-29.441543-23.159466-53.394071-51.626821-53.394071z m-353.314884 840.768839h-85.111447V769.171174h85.111447v136.241964zM905.230478 715.390293H118.142236V118.42518H905.230478v596.965113z" fill="#ffffff" p-id="4478"></path></svg>