<?xml version="1.0" encoding="UTF-8"?>
<svg version="1.1" xmlns="http://www.w3.org/2000/svg" width="600" height="600">
<path d="M0 0 C2.50341797 1.17651367 2.50341797 1.17651367 4.9921875 2.66796875 C5.93191406 3.22419922 6.87164062 3.78042969 7.83984375 4.35351562 C8.84144531 4.95873047 9.84304688 5.56394531 10.875 6.1875 C13.03891592 7.47290305 15.2029826 8.75805232 17.3671875 10.04296875 C18.47030273 10.70216309 19.57341797 11.36135742 20.70996094 12.04052734 C25.78549941 15.06340296 30.89313431 18.03047089 36 21 C38.00017735 22.16636259 40.00017685 23.33303022 42 24.5 C42.99 25.0775 43.98 25.655 45 26.25 C102 59.5 102 59.5 104.99951172 61.24975586 C107.00109211 62.41731728 109.00271977 63.58479764 111.00439453 64.75219727 C115.98060392 67.65451416 120.95600455 70.55819916 125.9296875 73.46484375 C136.20532557 79.46777059 146.49638563 85.44187788 156.8125 91.375 C166.88756713 97.1718926 176.89712756 103.07273293 186.88720703 109.01464844 C194.62177972 113.60827223 202.39038928 118.13840743 210.1875 122.625 C211.7796936 123.54140259 211.7796936 123.54140259 213.40405273 124.47631836 C215.53139518 125.70055139 217.65875513 126.92475399 219.78613281 128.14892578 C225.21725556 131.27706105 230.64243062 134.41525451 236.0625 137.5625 C237.03147217 138.12211426 238.00044434 138.68172852 238.9987793 139.25830078 C239.91828369 139.79310059 240.83778809 140.32790039 241.78515625 140.87890625 C242.97443726 141.56835327 242.97443726 141.56835327 244.18774414 142.27172852 C245.11578857 142.84205811 246.04383301 143.4123877 247 144 C248.09487433 144.51767818 248.09487433 144.51767818 249.21186733 145.04581451 C252.86337062 146.99912341 255.52095922 148.46763966 256.79692173 152.54920101 C257.0581143 155.8616591 257.02178589 159.06564512 256.89648438 162.38647461 C256.88513962 163.67246866 256.87379486 164.95846272 256.86210632 166.28342628 C256.83680895 169.14279427 256.7827953 171.99975897 256.70765686 174.85824776 C256.58384036 179.60099768 256.5245063 184.34336932 256.47351074 189.08738708 C256.41298189 194.40620526 256.34656726 199.72476598 256.25962067 205.04322529 C256.01321807 220.15404076 255.91630877 235.2628164 255.87109375 250.37548828 C255.86740028 251.56693475 255.86370682 252.75838121 255.85990143 253.98593211 C255.84478473 258.89801248 255.83003411 263.8100936 255.81607056 268.72217739 C255.77583126 282.635827 255.71032876 296.54934257 255.64453125 310.46289062 C255.63256032 313.0322347 255.62061784 315.6015789 255.60870361 318.17092323 C255.59071867 322.04897276 255.57271737 325.9270222 255.55462646 329.80507123 C255.51141591 339.06934427 255.46905296 348.33362093 255.42724609 357.59790039 C255.4242591 358.25975657 255.4212721 358.92161274 255.41819459 359.60352517 C255.40319921 362.92713705 255.38821817 366.250749 255.37324238 369.57436097 C255.25090322 396.71625031 255.12627458 423.8581287 255 451 C254.24460434 451.41806412 253.48920868 451.83612823 252.71092224 452.26686096 C249.846763 453.85278162 246.98323729 455.43983528 244.12010193 457.02760315 C242.89237869 457.70815658 241.66442093 458.38828715 240.436203 459.06794739 C232.25457061 463.59590291 224.1277678 468.20411963 216.0625 472.9375 C215.03597321 473.53977417 214.00944641 474.14204834 212.95181274 474.76257324 C212.02540985 475.30627563 211.09900696 475.84997803 210.14453125 476.41015625 C203.54032565 480.27959949 196.89864206 484.08264329 190.25 487.875 C189.66550079 488.20845428 189.08100159 488.54190857 188.47879028 488.88546753 C185.50771153 490.58021371 182.53619122 492.27418372 179.56445312 493.96777344 C174.28906705 496.97470744 169.01765562 499.98859617 163.74597168 503.00201416 C160.83081342 504.6682993 157.91539337 506.33412627 155 508 C153.83333208 508.66666448 152.66666541 509.33333114 151.5 510 C121.16666667 527.33333333 90.83333333 544.66666667 60.5 562 C59.92258057 562.32995468 59.34516113 562.65990936 58.75024414 562.99986267 C57.58276618 563.66699148 56.4152857 564.33411591 55.24780273 565.00123596 C52.34352843 566.66079598 49.43930632 568.32044718 46.53515625 569.98022461 C41.13778036 573.06481886 35.74004948 576.14878368 30.34082031 579.23013306 C27.83024107 580.66298433 25.31989768 582.09624852 22.80957031 583.52954102 C21.06858714 584.52334833 19.32726915 585.51656903 17.5859375 586.50976562 C16.50570313 587.12658203 15.42546875 587.74339844 14.3125 588.37890625 C13.26578125 588.97203613 12.2190625 589.56516602 11.140625 590.17626953 C8.98199562 591.42976467 6.84729157 592.72509635 4.734375 594.05419922 C3.68765625 594.70533691 2.6409375 595.35647461 1.5625 596.02734375 C0.63566406 596.621521 -0.29117187 597.21569824 -1.24609375 597.82788086 C-4.71790659 599.30555581 -6.40248709 599.04050328 -10 598 C-12.65527344 596.74755859 -12.65527344 596.74755859 -15.359375 595.1484375 C-16.37894287 594.55232666 -17.39851074 593.95621582 -18.44897461 593.34204102 C-20.08298218 592.36835571 -20.08298218 592.36835571 -21.75 591.375 C-22.90771559 590.69426266 -24.06601148 590.01451136 -25.22485352 589.33569336 C-27.62947727 587.92622294 -30.03155801 586.51255225 -32.43212891 585.09619141 C-36.84945562 582.49483525 -41.29630858 579.94548181 -45.74316406 577.39501953 C-56.85036435 571.02306559 -67.88219535 564.53082602 -78.88769531 557.98510742 C-87.69655724 552.75333533 -96.55583875 547.61394567 -105.43701172 542.50610352 C-115.66111336 536.62581237 -125.84917774 530.68491014 -136.03222656 524.73388672 C-141.01990957 521.8198916 -146.01008705 518.91017432 -151 516 C-153.0000118 514.83335357 -155.00001181 513.66668691 -157 512.5 C-158.485 511.63375 -158.485 511.63375 -160 510.75 C-217 477.5 -217 477.5 -220.00415039 475.74755859 C-221.99029211 474.58898941 -223.97645721 473.43046031 -225.96264648 472.27197266 C-231.17487745 469.23175445 -236.38661719 466.19069829 -241.59765625 463.1484375 C-242.67982422 462.51679688 -243.76199219 461.88515625 -244.87695312 461.234375 C-246.94220815 460.02890425 -249.00732114 458.82319012 -251.07226562 457.6171875 C-252.00876953 457.070625 -252.94527344 456.5240625 -253.91015625 455.9609375 C-254.72621338 455.48446777 -255.54227051 455.00799805 -256.38305664 454.51708984 C-258.4725619 453.30576549 -260.56620914 452.10281518 -262.66355896 450.90518188 C-264.31509727 449.96211685 -264.31509727 449.96211685 -266 449 C-266.03378745 435.41668002 -266.05192704 421.83335687 -266.0625 408.25 C-266.06335602 407.15879097 -266.06421204 406.06758194 -266.06509399 404.94330597 C-266.10312651 349.41975728 -265.79492354 293.89758062 -265.5 238.375 C-265.49103943 236.68618052 -265.49103943 236.68618052 -265.48189783 234.96324348 C-265.32622556 205.64213471 -265.16561739 176.32105426 -265 147 C-263.86837936 146.37388573 -263.86837936 146.37388573 -262.71389771 145.73512268 C-259.85214147 144.1508986 -256.99106326 142.56546247 -254.13040161 140.97926331 C-252.90397686 140.29953406 -251.67730157 139.62025659 -250.4503479 138.94148254 C-242.19734376 134.37524871 -234.00564473 129.71956891 -225.875 124.9375 C-217.80126584 120.19564891 -209.68194377 115.55278419 -201.5 111 C-193.2779741 106.424336 -185.1141857 101.76429252 -177 97 C-167.85086711 91.62803207 -158.62596869 86.40923475 -149.35546875 81.25 C-142.18646305 77.25035548 -135.07907237 73.15651956 -128 69 C-118.85086711 63.62803207 -109.62596869 58.40923475 -100.35546875 53.25 C-93.18646305 49.25035548 -86.07907237 45.15651956 -79 41 C-70.8858098 36.23570484 -62.72193412 31.5758351 -54.5 27 C-44.10439721 21.21289996 -33.80521662 15.27394321 -23.54296875 9.25390625 C-22.19211182 8.46910889 -22.19211182 8.46910889 -20.81396484 7.66845703 C-18.80536126 6.47751509 -16.81808371 5.25030019 -14.84619141 3.99951172 C-13.79995605 3.34869629 -12.7537207 2.69788086 -11.67578125 2.02734375 C-10.26099487 1.12423462 -10.26099487 1.12423462 -8.81762695 0.20288086 C-5.3134556 -1.29309456 -3.62968579 -1.05058024 0 0 Z M-7.8203125 73.5703125 C-8.81804687 74.12976563 -9.81578125 74.68921875 -10.84375 75.265625 C-11.9265625 75.87921875 -13.009375 76.4928125 -14.125 77.125 C-15.24648438 77.75664063 -16.36796875 78.38828125 -17.5234375 79.0390625 C-26.05796772 83.85500819 -34.52431491 88.78540529 -42.97509766 93.74658203 C-51.13676 98.52696524 -59.37990985 103.15055853 -67.64453125 107.75 C-74.81353695 111.74964452 -81.92092763 115.84348044 -89 120 C-97.11419099 124.76429563 -105.27809188 129.42411851 -113.5 134 C-122.65063184 139.09463395 -131.72447309 144.3045213 -140.75854492 149.6027832 C-148.57952976 154.18507735 -156.43806754 158.69798592 -164.3125 163.1875 C-172.61312437 167.92198794 -180.91201333 172.65914869 -189.1875 177.4375 C-189.97745361 177.89213623 -190.76740723 178.34677246 -191.58129883 178.81518555 C-194.98808036 180.63671334 -194.98808036 180.63671334 -198 183 C-198.12584269 185.61855719 -198.18619578 188.21186186 -198.20532227 190.83203125 C-198.21521903 191.66438514 -198.2251158 192.49673903 -198.23531246 193.35431576 C-198.26736073 196.17368067 -198.29199407 198.99305927 -198.31640625 201.8125 C-198.33715272 203.83582351 -198.35819694 205.85914399 -198.3795166 207.88246155 C-198.43610751 213.42668998 -198.48524586 218.97096221 -198.53242874 224.51527786 C-198.56240113 227.98854264 -198.59428719 231.46178508 -198.62667847 234.93502808 C-199.1622293 292.95591741 -199.10044633 350.9773244 -199 409 C-198.27587921 409.41740952 -197.55175842 409.83481903 -196.80569458 410.26487732 C-194.05622123 411.84994815 -191.30689018 413.43526546 -188.55764771 415.02073669 C-186.80782457 416.02975479 -185.05784524 417.03850199 -183.30786133 418.04724121 C-172.8401376 424.0843103 -162.40065323 430.16908742 -151.96777344 436.26611328 C-146.98009043 439.1801084 -141.98991295 442.08982568 -137 445 C-134.9999882 446.16664643 -132.99998819 447.33331309 -131 448.5 C-129.515 449.36625 -129.515 449.36625 -128 450.25 C-47 497.5 -47 497.5 -43.99560547 499.25390625 C-42.01181225 500.41022973 -40.02647799 501.56391379 -38.03955078 502.71484375 C-32.77537324 505.76894971 -27.55214772 508.87548384 -22.3671875 512.0625 C-21.28050781 512.72121094 -20.19382812 513.37992188 -19.07421875 514.05859375 C-16.98592875 515.32584665 -14.90722088 516.60906562 -12.83984375 517.91015625 C-11.90011719 518.47605469 -10.96039063 519.04195312 -9.9921875 519.625 C-9.17089355 520.13289063 -8.34959961 520.64078125 -7.50341797 521.1640625 C-4.00407628 522.33255733 -2.33241456 521.47068568 1 520 C2.93543355 519.00585575 4.84374535 517.95770361 6.7265625 516.8671875 C7.82613281 516.23425781 8.92570313 515.60132813 10.05859375 514.94921875 C11.24742099 514.25785576 12.43622235 513.56644827 13.625 512.875 C14.87336563 512.15437198 16.12206998 511.43433046 17.37109375 510.71484375 C19.96388176 509.22069053 22.55519882 507.72403245 25.14550781 506.22558594 C31.08347348 502.79337999 37.04283313 499.39873733 43 496 C45.3309526 494.66835961 47.66155184 493.33610123 49.9921875 492.00390625 C54.09451741 489.65945698 58.19752546 487.3162008 62.30133057 484.97433472 C74.21576145 478.17522042 86.12188804 471.36246827 98 464.5 C106.94559059 459.33176857 115.90363381 454.18583694 124.875 449.0625 C125.45471558 448.73139221 126.03443115 448.40028442 126.63171387 448.05914307 C132.54004587 444.68485818 138.44989996 441.31325082 144.36131287 437.94436646 C156.49589343 431.02817046 168.6167198 424.08956118 180.6875 417.0625 C181.71584961 416.4648584 182.74419922 415.8672168 183.80371094 415.25146484 C184.73860352 414.70570801 185.67349609 414.15995117 186.63671875 413.59765625 C187.45873779 413.11820557 188.28075684 412.63875488 189.12768555 412.14477539 C190.94246178 411.13567825 190.94246178 411.13567825 192 410 C192.09439978 407.73008113 192.11742226 405.45718033 192.11352539 403.18530273 C192.11374443 402.11706772 192.11374443 402.11706772 192.1139679 401.0272522 C192.1132687 398.66266888 192.10547606 396.29816339 192.09765625 393.93359375 C192.09579209 392.29834537 192.09436818 390.66309643 192.09336853 389.02784729 C192.08954318 384.71565215 192.07971275 380.40349048 192.06866455 376.09130859 C192.0584508 371.69434054 192.05387099 367.29736711 192.04882812 362.90039062 C192.03809049 354.26691169 192.02101387 345.63346 192 337 C189.62025985 338.26314141 187.24121744 339.52756815 184.86254883 340.79272461 C184.19572334 341.14649925 183.52889786 341.5002739 182.84186554 341.86476898 C177.03753439 344.95408329 171.34839762 348.21778515 165.6875 351.5625 C163.60318415 352.78570095 161.51853713 354.00833773 159.43359375 355.23046875 C158.37382324 355.85228027 157.31405273 356.4740918 156.22216797 357.11474609 C150.91031657 360.22265006 145.58131093 363.30062822 140.25 366.375 C139.17580811 366.9944751 138.10161621 367.6139502 136.99487305 368.25219727 C128.41947775 373.19212868 119.82773871 378.10323501 111.23260498 383.00869751 C99.53968311 389.68266126 87.87506392 396.40512041 76.21777344 403.14111328 C70.81329355 406.26324605 65.40652588 409.38141204 60 412.5 C57.8333225 413.74998122 55.66665583 414.99998121 53.5 416.25 C24.25 433.125 24.25 433.125 -5 450 C-5.42797126 440.59383029 -5.72215314 431.19519241 -5.8523407 421.78016472 C-5.9168945 417.4058284 -6.02493911 413.04219431 -6.23779297 408.67236328 C-7.56078601 380.57587576 -7.56078601 380.57587576 -1.75085449 373.10968018 C3.89415469 368.36011271 10.24633958 365.58875077 17.13110352 363.07952881 C20.7558084 361.71559903 23.76696381 359.96426631 27.046875 357.9140625 C28.94748597 356.81696186 30.84851819 355.72059063 32.75 354.625 C33.80960938 354.01398438 34.86921875 353.40296875 35.9609375 352.7734375 C44.55088949 347.82465954 53.1574716 342.90520584 61.76739502 337.99130249 C73.46031689 331.31733874 85.12493608 324.59487959 96.78222656 317.85888672 C103.27125096 314.11021966 109.7633695 310.36691333 116.25488281 306.62255859 C121.64748314 303.51181661 127.03937822 300.39986673 132.4296875 297.28515625 C134.57807334 296.04418139 136.72651086 294.80329601 138.875 293.5625 C139.93291748 292.95140381 140.99083496 292.34030762 142.08081055 291.71069336 C147.84541939 288.38450579 153.61818119 285.07327398 159.40234375 281.78125 C160.02260437 281.42796127 160.64286499 281.07467255 161.28192139 280.7106781 C164.26104442 279.01396144 167.24135815 277.31946811 170.22412109 275.62915039 C172.34056323 274.42479478 174.44667715 273.20200023 176.53912354 271.9564209 C180 270 180 270 183.43197632 268.49534607 C187.36394599 266.59282858 189.88338758 265.08261433 193 262 C194.81256701 256.17878756 194.52452206 250.63212356 194.26953125 244.59375 C194.2452548 242.90131724 194.22676381 241.2087925 194.21379089 239.51623535 C194.16437431 235.08153744 194.03691606 230.65246104 193.89263916 226.2199707 C193.75914465 221.68908762 193.70017429 217.15728678 193.63476562 212.625 C193.49574174 203.74754248 193.27417557 194.87424026 193 186 C189.0940648 187.26382897 185.67793544 188.59219194 182.1484375 190.6953125 C181.22933594 191.23800781 180.31023437 191.78070313 179.36328125 192.33984375 C178.37714844 192.92894531 177.39101563 193.51804687 176.375 194.125 C174.21686539 195.39965657 172.05798044 196.6730434 169.8984375 197.9453125 C168.77018555 198.61079102 167.64193359 199.27626953 166.47949219 199.96191406 C161.27095257 203.02186243 156.01929386 206.00631621 150.76885986 208.99359131 C141.48208293 214.27738637 132.22045375 219.60098911 123 225 C113.22503358 230.72258797 103.4021294 236.35843499 93.5625 241.96875 C85.69462595 246.45555737 77.84174598 250.96764758 70 255.5 C60.3893729 261.05472584 50.75745432 266.57113098 41.112854 272.06655884 C31.69369449 277.43499767 22.31726099 282.87367713 12.98779297 288.39672852 C12.08174316 288.92967529 11.17569336 289.46262207 10.2421875 290.01171875 C9.4672998 290.47022217 8.69241211 290.92872559 7.89404297 291.40112305 C3.66793716 293.73592707 -0.68154841 295.84077421 -5 298 C-5 273.58 -5 249.16 -5 224 C-2.525 223.01 -2.525 223.01 0 222 C1.71934044 221.10624743 3.42309042 220.18209867 5.11328125 219.234375 C6.10110596 218.68152832 7.08893066 218.12868164 8.10668945 217.55908203 C9.16460693 216.96208496 10.22252441 216.36508789 11.3125 215.75 C12.42262451 215.12593262 13.53274902 214.50186523 14.67651367 213.85888672 C23.08730665 209.11549721 31.43943099 204.27537264 39.76928711 199.39135742 C47.44157096 194.89608779 55.14998669 190.4663109 62.875 186.0625 C75.16229081 179.05616133 87.42105662 172.00154604 99.66796875 164.92480469 C105.0634008 161.80804133 110.46092853 158.69491184 115.8583374 155.58157349 C118.64782931 153.97249587 121.43719089 152.36319238 124.2265625 150.75390625 C125.81770833 149.8359375 127.40885417 148.91796875 129 148 C126.60875126 145.35416403 124.06354927 143.74168745 120.96875 141.98828125 C119.43250977 141.11139648 119.43250977 141.11139648 117.86523438 140.21679688 C116.19944336 139.27416992 116.19944336 139.27416992 114.5 138.3125 C112.12334166 136.95732039 109.7490311 135.59805699 107.375 134.23828125 C106.76434692 133.88895538 106.15369385 133.53962952 105.52453613 133.17971802 C99.14195946 129.52187504 92.81990316 125.76506834 86.5 122 C73.4032136 114.21047597 60.21323022 106.58981913 47 99 C42.58216977 96.46035044 38.16561275 93.91850294 33.75 91.375 C32.15176392 90.45533447 32.15176392 90.45533447 30.52124023 89.51708984 C25.17578223 86.43463367 19.84810544 83.3259598 14.546875 80.16796875 C13.52754883 79.56098145 12.50822266 78.95399414 11.45800781 78.32861328 C9.52780456 77.17616278 7.59995149 76.01976421 5.67480469 74.85888672 C4.82305664 74.34986816 3.97130859 73.84084961 3.09375 73.31640625 C1.97516602 72.64266968 1.97516602 72.64266968 0.83398438 71.95532227 C-2.71808221 70.10505116 -4.54438053 71.72726493 -7.8203125 73.5703125 Z " fill="#409DFF" transform="translate(305,1)"/>
</svg>
